<svg width="32" height="32" viewBox="0 0 32 32" fill="none" xmlns="http://www.w3.org/2000/svg">
<path fill-rule="evenodd" clip-rule="evenodd" d="M25.4668 25.5463C26.2534 24.3463 26.5468 23.733 27.1468 22.3864C22.7201 20.7064 22.0134 14.3997 26.3868 11.9863C25.0534 10.3063 23.1734 9.33301 21.4001 9.33301C20.1201 9.33301 19.2401 9.66636 18.4534 9.97302C17.7868 10.2264 17.1868 10.453 16.4401 10.453C15.6401 10.453 14.9334 10.1997 14.1868 9.93302C13.3734 9.63969 12.5201 9.33301 11.4534 9.33301C9.46675 9.33301 7.34676 10.5463 6.00009 12.6263C4.10676 15.5597 4.44009 21.053 7.49343 25.7463C8.58676 27.4263 10.0534 29.3063 11.9601 29.333C12.7601 29.3463 13.2801 29.1064 13.8534 28.853C14.5068 28.5597 15.2134 28.2397 16.4534 28.2397C17.6934 28.2263 18.3868 28.5597 19.0401 28.853C19.6001 29.1064 20.1068 29.3463 20.8934 29.333C22.8268 29.3063 24.3734 27.2263 25.4668 25.5463Z" fill="white"/>
<path fill-rule="evenodd" clip-rule="evenodd" d="M21.1206 2.66699C21.3339 4.13366 20.7339 5.58701 19.9472 6.60034C19.1072 7.69368 17.6406 8.54699 16.2272 8.49365C15.9739 7.08032 16.6272 5.62698 17.4272 4.65365C18.3206 3.58698 19.8272 2.76033 21.1206 2.66699Z" fill="white"/>
</svg>
