<svg width="56" height="56" viewBox="0 0 56 56" fill="none" xmlns="http://www.w3.org/2000/svg">
<path d="M45.1417 0.572266C47.9751 0.572266 50.3977 1.57822 52.4096 3.59012C54.4215 5.60203 55.4275 8.02465 55.4275 10.858V45.1437C55.4275 47.977 54.4215 50.3996 52.4096 52.4115C50.3977 54.4235 47.9751 55.4294 45.1417 55.4294H38.4275V34.1794H45.5346L46.606 25.8937H38.4275V20.608C38.4275 19.2746 38.7072 18.2746 39.2667 17.608C39.8263 16.9413 40.9155 16.608 42.5346 16.608L46.8917 16.5723V9.17941C45.3917 8.96512 43.2727 8.85798 40.5346 8.85798C37.2965 8.85798 34.7072 9.81036 32.7667 11.7151C30.8263 13.6199 29.856 16.3104 29.856 19.7866V25.8937H22.7132V34.1794H29.856V55.4294H10.856C8.02269 55.4294 5.60007 54.4235 3.58817 52.4115C1.57626 50.3996 0.570312 47.977 0.570312 45.1437V10.858C0.570312 8.02465 1.57626 5.60203 3.58817 3.59012C5.60007 1.57822 8.02269 0.572266 10.856 0.572266H45.1417Z" fill="white"/>
</svg>
