<svg width="126" height="115" viewBox="0 0 126 115" fill="none" xmlns="http://www.w3.org/2000/svg">
<path d="M69.1016 98.5761L88.4258 110.664C98.1738 116.763 110.859 115.221 118.864 106.966L119.122 106.7C128.498 97.0339 128.261 81.5958 118.594 72.2201C110.221 64.1001 97.2657 63.0447 87.6936 69.7084L68.7253 82.9048C63.1947 86.7541 63.3952 95.0009 69.1057 98.5761H69.1016Z" fill="#F92323"/>
<path d="M26.7809 65.3287L24.9851 53.8095C24.0811 47.9967 19.2378 43.6074 13.3636 43.2761L13.1755 43.2638C6.29908 42.8711 0.408558 48.1317 0.0199466 55.0121C-0.315486 60.9681 3.61153 66.3309 9.3957 67.8036L20.8495 70.7202C24.1916 71.5711 27.3127 68.7321 26.7809 65.3246V65.3287Z" fill="#F92323"/>
<path d="M58.7232 75.7023L83.2262 58.6238C95.5881 50.009 100.247 33.9286 94.4141 20.0368L94.2259 19.5909C87.3905 3.31835 68.6594 -4.33116 52.3868 2.50431C38.2946 8.42347 30.3669 23.4975 33.4758 38.4611L39.6322 68.1101C41.428 76.7577 51.4746 80.7542 58.7191 75.7023H58.7232Z" fill="#F92323"/>
</svg>
