<svg width="23" height="24" viewBox="0 0 23 24" fill="none" xmlns="http://www.w3.org/2000/svg">
<path d="M12.2707 11.4889L16.2134 7.54624L3.4787 0.388911C2.6347 -0.067089 1.84403 -0.131089 1.1507 0.367578L12.2707 11.4889ZM16.8854 16.1049L20.984 13.7996C21.784 13.3516 22.2227 12.7169 22.2227 12.0129C22.2227 11.3102 21.784 10.6742 20.9854 10.2262L17.2747 8.14224L13.0974 12.3182L16.8854 16.1049ZM0.465364 1.33691C0.380031 1.59958 0.332031 1.89291 0.332031 2.21424V21.8209C0.332031 22.3289 0.444031 22.7662 0.646698 23.1142L11.4427 12.3169L0.465364 1.33691ZM12.2707 13.1436L1.5347 23.8809C1.74003 23.9596 1.96136 24.0009 2.1947 24.0009C2.6107 24.0009 3.04403 23.8782 3.48536 23.6329L15.8254 16.7036L12.2707 13.1436Z" fill="white"/>
</svg>
