<svg width="64" height="64" viewBox="0 0 64 64" fill="none" xmlns="http://www.w3.org/2000/svg">
<path d="M31.9987 25.3873C30.6907 25.3873 29.4121 25.7752 28.3245 26.5019C27.237 27.2285 26.3893 28.2614 25.8888 29.4698C25.3882 30.6783 25.2573 32.008 25.5124 33.2908C25.7676 34.5737 26.3975 35.7521 27.3224 36.677C28.2473 37.6019 29.4256 38.2317 30.7085 38.4869C31.9914 38.7421 33.3211 38.6111 34.5295 38.1106C35.7379 37.61 36.7708 36.7624 37.4975 35.6748C38.2242 34.5873 38.612 33.3086 38.612 32.0006C38.612 31.1322 38.441 30.2722 38.1086 29.4698C37.7763 28.6675 37.2891 27.9384 36.675 27.3243C36.0609 26.7102 35.3319 26.2231 34.5295 25.8907C33.7271 25.5584 32.8672 25.3873 31.9987 25.3873V25.3873ZM58.4787 18.854C58.4647 16.7947 58.0855 14.7542 57.3587 12.8273C56.8234 11.4173 55.9953 10.1369 54.9289 9.07048C53.8624 8.00406 52.582 7.1759 51.172 6.64065C49.2452 5.91389 47.2047 5.53468 45.1454 5.52065C41.7054 5.33398 40.692 5.33398 31.9987 5.33398C23.3054 5.33398 22.292 5.33398 18.852 5.52065C16.7927 5.53468 14.7522 5.91389 12.8254 6.64065C11.4154 7.1759 10.1349 8.00406 9.06853 9.07048C8.0021 10.1369 7.17394 11.4173 6.6387 12.8273C5.91193 14.7542 5.53273 16.7947 5.5187 18.854C5.33203 22.294 5.33203 23.3073 5.33203 32.0006C5.33203 40.694 5.33203 41.7073 5.5187 45.1473C5.5474 47.2139 5.9261 49.2606 6.6387 51.2007C7.17157 52.6042 7.99904 53.8772 9.06536 54.934C10.1272 56.0068 11.4104 56.835 12.8254 57.3606C14.7522 58.0874 16.7927 58.4666 18.852 58.4806C22.292 58.6673 23.3054 58.6673 31.9987 58.6673C40.692 58.6673 41.7054 58.6673 45.1454 58.4806C47.2047 58.4666 49.2452 58.0874 51.172 57.3606C52.587 56.835 53.8702 56.0068 54.932 54.934C55.9984 53.8772 56.8258 52.6042 57.3587 51.2007C58.0848 49.2643 58.4639 47.2152 58.4787 45.1473C58.6654 41.7073 58.6654 40.694 58.6654 32.0006C58.6654 23.3073 58.6654 22.294 58.4787 18.854V18.854ZM51.7054 40.1873C51.6198 41.8329 51.2686 43.4539 50.6654 44.9873C50.1477 46.2665 49.3781 47.4285 48.4023 48.4043C47.4265 49.38 46.2645 50.1496 44.9854 50.6673C43.4374 51.2369 41.8074 51.5521 40.1587 51.6006C38.052 51.6006 37.492 51.6006 31.9987 51.6006C26.5054 51.6006 25.9454 51.6006 23.8387 51.6006C22.19 51.5521 20.56 51.2369 19.012 50.6673C17.6896 50.1759 16.4954 49.3919 15.5187 48.374C14.5525 47.4173 13.8063 46.2616 13.332 44.9873C12.7602 43.441 12.4536 41.8091 12.4254 40.1607C12.4254 38.054 12.4254 37.494 12.4254 32.0006C12.4254 26.5073 12.4254 25.9473 12.4254 23.8406C12.4536 22.1922 12.7602 20.5603 13.332 19.014C13.8234 17.6916 14.6074 16.4974 15.6254 15.5207C16.5863 14.5596 17.7407 13.8142 19.012 13.334C20.56 12.7644 22.19 12.4492 23.8387 12.4007V12.4007C25.9454 12.4007 26.5054 12.4007 31.9987 12.4007C37.492 12.4007 38.052 12.4007 40.1587 12.4007C41.8074 12.4492 43.4374 12.7644 44.9854 13.334C46.3078 13.8254 47.502 14.6094 48.4787 15.6273C49.4449 16.584 50.1911 17.7397 50.6654 19.014C51.2349 20.562 51.5501 22.1919 51.5987 23.8406C51.5987 25.9473 51.5987 26.5073 51.5987 32.0006C51.5987 37.494 51.7854 38.054 51.7054 40.1607V40.1873ZM47.4387 20.3473C47.1212 19.4859 46.6206 18.7037 45.9715 18.0546C45.3223 17.4054 44.5401 16.9048 43.6787 16.5873C42.496 16.1773 41.2503 15.9788 39.9987 16.0007C37.9187 16.0007 37.332 16.0007 31.9987 16.0007C26.6654 16.0007 26.0787 16.0007 23.9987 16.0007C22.7407 16.0129 21.4949 16.2477 20.3187 16.694C19.4705 16.9971 18.6965 17.4772 18.0483 18.1025C17.4 18.7278 16.8922 19.484 16.5587 20.3206C16.1714 21.5083 15.9822 22.7516 15.9987 24.0006C15.9987 26.0806 15.9987 26.6673 15.9987 32.0006C15.9987 37.334 15.9987 37.9206 15.9987 40.0006C16.0251 41.2572 16.2594 42.5006 16.692 43.6806C17.0095 44.542 17.5101 45.3243 18.1593 45.9734C18.8084 46.6226 19.5907 47.1231 20.452 47.4407C21.5898 47.8591 22.7871 48.0931 23.9987 48.134V48.134C26.0787 48.134 26.6654 48.134 31.9987 48.134C37.332 48.134 37.9187 48.134 39.9987 48.134C41.2567 48.1217 42.5025 47.887 43.6787 47.4407C44.5401 47.1231 45.3223 46.6226 45.9715 45.9734C46.6206 45.3243 47.1212 44.542 47.4387 43.6806C47.885 42.5045 48.1197 41.2586 48.132 40.0006C48.132 37.9206 48.132 37.334 48.132 32.0006C48.132 26.6673 48.132 26.0806 48.132 24.0006C48.1328 22.7414 47.8976 21.4932 47.4387 20.3206V20.3473ZM31.9987 42.1873C30.6622 42.1873 29.3389 41.9236 28.1045 41.4114C26.8701 40.8991 25.7488 40.1484 24.805 39.2021C23.8613 38.2558 23.1134 37.1326 22.6044 35.8969C22.0954 34.6612 21.8352 33.3371 21.8387 32.0006V32.0006C21.8387 29.9848 22.4368 28.0142 23.5573 26.3385C24.6778 24.6627 26.2704 23.3571 28.1333 22.5869C29.9962 21.8167 32.0458 21.6165 34.0225 22.0117C35.9993 22.4069 37.8143 23.3798 39.2379 24.8071C40.6614 26.2344 41.6295 28.052 42.0195 30.0297C42.4096 32.0075 42.204 34.0565 41.4289 35.9174C40.6538 37.7783 39.344 39.3674 37.6654 40.4835C35.9867 41.5996 34.0146 42.1926 31.9987 42.1873V42.1873ZM42.6654 23.814C42.0759 23.7516 41.5303 23.4732 41.1339 23.0326C40.7374 22.5919 40.518 22.0201 40.518 21.4273C40.518 20.8345 40.7374 20.2627 41.1339 19.8221C41.5303 19.3814 42.0759 19.103 42.6654 19.0406V19.0406C43.2548 19.103 43.8004 19.3814 44.1969 19.8221C44.5934 20.2627 44.8127 20.8345 44.8127 21.4273C44.8127 22.0201 44.5934 22.5919 44.1969 23.0326C43.8004 23.4732 43.2548 23.7516 42.6654 23.814Z" fill="white"/>
</svg>
