<svg width="18" height="19" viewBox="0 0 18 19" fill="none" xmlns="http://www.w3.org/2000/svg">
<path d="M16.9995 13.8656V16.2791C17.0004 16.5031 16.9545 16.7249 16.8648 16.9302C16.775 17.1355 16.6434 17.3197 16.4783 17.4712C16.3132 17.6227 16.1183 17.738 15.906 17.8098C15.6938 17.8815 15.4689 17.9082 15.2457 17.888C12.7702 17.619 10.3923 16.7731 8.30312 15.4183C6.35937 14.1831 4.71141 12.5352 3.47627 10.5914C2.11669 8.49272 1.27059 6.10326 1.00653 3.61663C0.986426 3.39416 1.01286 3.16995 1.08416 2.95826C1.15546 2.74658 1.27005 2.55206 1.42065 2.38708C1.57124 2.22211 1.75454 2.0903 1.95886 2.00005C2.16319 1.9098 2.38407 1.86308 2.60744 1.86287H5.02086C5.41128 1.85903 5.78977 1.99728 6.0858 2.25186C6.38182 2.50644 6.57517 2.85998 6.62981 3.24657C6.73168 4.01892 6.92059 4.77727 7.19295 5.50715C7.30118 5.79509 7.32461 6.10802 7.26045 6.40887C7.19629 6.70971 7.04723 6.98586 6.83093 7.20459L5.80925 8.22627C6.95446 10.2403 8.62206 11.9079 10.6361 13.0531L11.6578 12.0314C11.8765 11.8151 12.1527 11.6661 12.4535 11.6019C12.7544 11.5378 13.0673 11.5612 13.3552 11.6694C14.0851 11.9418 14.8435 12.1307 15.6158 12.2326C16.0066 12.2877 16.3635 12.4845 16.6186 12.7856C16.8737 13.0867 17.0093 13.4711 16.9995 13.8656Z" stroke="#131313" stroke-width="2" stroke-linecap="round" stroke-linejoin="round"/>
</svg>
