<svg width="64" height="64" viewBox="0 0 64 64" fill="none" xmlns="http://www.w3.org/2000/svg">
<path d="M49.6349 0H14.3651C6.43147 0 0 6.43147 0 14.3651V49.6349C0 57.5685 6.43147 64 14.3651 64H49.6349C57.5685 64 64 57.5685 64 49.6349V14.3651C64 6.43147 57.5685 0 49.6349 0Z" fill="white"/>
<path fill-rule="evenodd" clip-rule="evenodd" d="M26.025 40.1467C24.513 40.1093 23.0501 39.6027 21.8387 38.6972C20.6274 37.7916 19.7275 36.5319 19.2636 35.0924C20.2931 35.3204 21.3599 35.3204 22.3894 35.0924C21.4158 34.8636 20.4998 34.4364 19.6988 33.8376C18.8978 33.2387 18.2289 32.481 17.734 31.6119C17.0101 30.4496 16.6403 29.1015 16.6699 27.7325C17.6636 28.2795 18.7728 28.5833 19.9065 28.6192C18.385 27.5721 17.3159 25.9882 16.9138 24.1855C16.5073 22.3937 16.8007 20.5143 17.734 18.9316C19.5601 21.1832 21.8364 23.0285 24.4169 24.3493C26.9975 25.6701 29.8255 26.4374 32.7198 26.6019C32.7198 26.3137 32.7198 26.0699 32.609 25.8038C32.4096 24.295 32.6887 22.7616 33.407 21.4198C34.1253 20.0779 35.2465 18.9953 36.6126 18.3245C37.9788 17.6537 39.521 17.4284 41.0219 17.6805C42.5229 17.9326 43.9069 18.6494 44.9789 19.7297C45.0255 19.781 45.0853 19.8186 45.1518 19.8381C45.2182 19.8577 45.2888 19.8585 45.3558 19.8405C46.8427 19.5244 48.2712 18.9784 49.5899 18.2223C49.0602 19.847 47.9879 21.2402 46.5529 22.1682C47.9522 22.0127 49.3199 21.6465 50.6097 21.082L49.8781 22.1682C49.1092 23.1123 48.2227 23.9541 47.2401 24.6732C47.2035 24.6969 47.1739 24.73 47.1544 24.769C47.1349 24.8079 47.1262 24.8514 47.1292 24.8949C47.1718 25.9756 47.1274 27.058 46.9962 28.1315C46.7139 30.3752 46.0779 32.56 45.1119 34.6047C44.1334 36.724 42.8071 38.6646 41.1881 40.3463C38.4891 43.1619 35.0055 45.1006 31.1902 45.9105C29.8563 46.2003 28.498 46.3636 27.1334 46.3982C23.0362 46.5383 18.9908 45.4497 15.5172 43.2725L15.3398 43.1616C17.7981 43.4268 20.2835 43.0685 22.5667 42.1197C23.8048 41.6245 24.9686 40.9606 26.025 40.1467Z" fill="black"/>
</svg>
