<svg width="142" height="125" viewBox="0 0 142 125" fill="none" xmlns="http://www.w3.org/2000/svg">
<g opacity="0.2">
<path d="M58.0416 88.5347L67.2611 105.715C71.9111 114.386 81.9859 118.624 91.4365 115.894L91.7416 115.804C102.808 112.604 109.191 101.036 105.991 89.9694C103.224 80.3823 94.0424 74.0974 84.1033 74.9815L64.4101 76.7288C58.6709 77.2377 55.3149 83.4513 58.0416 88.5347Z" fill="white"/>
<path d="M40.718 45.8737L44.2742 36.5493C46.0722 31.8524 44.3352 26.5286 40.116 23.7942L39.9771 23.7148C35.0323 20.4966 28.4235 21.9022 25.219 26.8433C22.4362 31.127 23.0754 36.7794 26.7476 40.3298L34.015 47.3637C36.1357 49.4167 39.6596 48.6321 40.718 45.8737Z" fill="white"/>
<path d="M60.036 67.1324L85.4833 64.8502C98.326 63.7022 108.619 53.7363 110.178 40.9324L110.228 40.5231C112.057 25.5351 101.4 11.8984 86.403 10.0642C73.4168 8.48082 61.1337 16.3068 57.0859 28.7482L49.0709 53.389C46.7355 60.5777 52.4958 67.8098 60.0223 67.1361L60.036 67.1324Z" fill="white"/>
</g>
</svg>
