<svg width="16" height="17" viewBox="0 0 16 17" fill="none" xmlns="http://www.w3.org/2000/svg">
<path d="M3.8269 11.1351C3.90023 10.8084 3.7669 10.3418 3.53357 10.1084L1.91356 8.48842C1.4069 7.98176 1.2069 7.44176 1.35356 6.97509C1.5069 6.50842 1.98023 6.18842 2.6869 6.06842L4.7669 5.72176C5.0669 5.66842 5.43356 5.40176 5.57356 5.12842L6.72023 2.82842C7.05357 2.16842 7.5069 1.80176 8.00023 1.80176C8.49357 1.80176 8.9469 2.16842 9.28023 2.82842L10.4269 5.12842C10.5136 5.30176 10.6936 5.46842 10.8869 5.58176L3.7069 12.7618C3.61356 12.8551 3.45356 12.7684 3.48023 12.6351L3.8269 11.1351Z" fill="#FFC727"/>
<path d="M12.4672 10.109C12.2272 10.349 12.0939 10.809 12.1739 11.1357L12.6339 13.1423C12.8272 13.9757 12.7072 14.6023 12.2939 14.9023C12.1272 15.0223 11.9272 15.0823 11.6939 15.0823C11.3539 15.0823 10.9539 14.9557 10.5139 14.6957L8.56052 13.5357C8.25385 13.3557 7.74719 13.3557 7.44052 13.5357L5.48719 14.6957C4.74719 15.129 4.11385 15.2023 3.70719 14.9023C3.55385 14.789 3.44052 14.6357 3.36719 14.4357L11.4739 6.32901C11.7805 6.02234 12.2139 5.88234 12.6339 5.95567L13.3072 6.06901C14.0139 6.18901 14.4872 6.50901 14.6405 6.97567C14.7872 7.44234 14.5872 7.98234 14.0805 8.48901L12.4672 10.109Z" fill="#FFC727"/>
</svg>
