<svg width="64" height="64" viewBox="0 0 64 64" fill="none" xmlns="http://www.w3.org/2000/svg">
<path fill-rule="evenodd" clip-rule="evenodd" d="M13.334 24H16.0007V37.3333H48.0006V24H50.6673V37.3333H54.0006C54.3688 37.3333 54.6673 37.6319 54.6673 38V39.3333C54.6673 39.7015 54.3688 40 54.0006 40H10.0007C9.63246 40 9.33398 39.7015 9.33398 39.3333V38C9.33398 37.6319 9.63246 37.3333 10.0007 37.3333H13.334V24ZM13.334 45.3333V53.3333H50.6673V45.3333H13.334ZM12.0007 42.6667C11.2643 42.6667 10.6673 43.2636 10.6673 44V54.6667C10.6673 55.4031 11.2643 56 12.0007 56H52.0006C52.737 56 53.334 55.4031 53.334 54.6667V44C53.334 43.2636 52.737 42.6667 52.0006 42.6667H12.0007Z" fill="#951515"/>
<path fill-rule="evenodd" clip-rule="evenodd" d="M13.5851 10.6667L10.7247 18.5505C10.6864 18.6563 10.6667 18.7681 10.6667 18.8812V22.068C10.6667 23.1456 11.53 24 12.5714 24C13.6129 24 14.4761 23.1456 14.4761 22.068C14.4761 21.3316 15.0732 20.7347 15.8095 20.7347C16.5459 20.7347 17.1428 21.3316 17.1428 22.068C17.1428 23.1456 18.0061 24 19.0476 24C20.0891 24 20.9524 23.1456 20.9524 22.068C20.9524 21.3316 21.5493 20.7347 22.2857 20.7347C23.0221 20.7347 23.6191 21.3316 23.6191 22.068C23.6191 23.1456 24.4824 24 25.5239 24C26.5648 24 27.4277 23.1464 27.4285 22.0696C27.4292 21.3337 28.026 20.7373 28.7619 20.7373C29.4979 20.7373 30.0947 21.3337 30.0952 22.0696C30.0961 23.1464 30.9591 24 32 24C33.0415 24 33.9048 23.1456 33.9048 22.068C33.9048 21.3316 34.5017 20.7347 35.2381 20.7347C35.9745 20.7347 36.5715 21.3316 36.5715 22.068C36.5715 23.1456 37.4347 24 38.4761 24C39.5172 24 40.3801 23.1464 40.3809 22.0696C40.3816 21.3337 40.9783 20.7373 41.7143 20.7373C42.4503 20.7373 43.0471 21.3337 43.0476 22.0696C43.0485 23.1464 43.9115 24 44.9524 24C45.9939 24 46.8572 23.1456 46.8572 22.068C46.8572 21.3316 47.4541 20.7347 48.1905 20.7347C48.9268 20.7347 49.5239 21.3316 49.5239 22.068C49.5239 23.1456 50.3871 24 51.4285 24C52.47 24 53.3333 23.1456 53.3333 22.068V18.8812C53.3333 18.7681 53.3136 18.6563 53.2753 18.5505L50.4149 10.6667H13.5851ZM50.3685 10.5386L50.3684 10.5383L50.5575 10.4697L50.3684 10.5383C50.3684 10.5384 50.3684 10.5385 50.3685 10.5386ZM48.1905 25.3141C47.3644 26.1487 46.2208 26.6667 44.9524 26.6667C43.6839 26.6667 42.5404 26.1487 41.7143 25.3141C40.8883 26.1487 39.7447 26.6667 38.4761 26.6667C37.2077 26.6667 36.0641 26.1487 35.2381 25.3141C34.412 26.1487 33.2685 26.6667 32 26.6667C30.7315 26.6667 29.588 26.1487 28.7619 25.3141C27.9359 26.1487 26.7923 26.6667 25.5239 26.6667C24.2553 26.6667 23.1117 26.1487 22.2857 25.3141C21.4596 26.1487 20.3161 26.6667 19.0476 26.6667C17.7792 26.6667 16.6356 26.1487 15.8095 25.3141C14.9835 26.1487 13.8399 26.6667 12.5714 26.6667C10.0362 26.6667 8 24.5972 8 22.068V18.8812C8 18.4584 8.07371 18.0387 8.21793 17.6411L11.1248 9.62879C11.4777 8.65613 12.4002 8 13.4425 8H50.5575C51.5999 8 52.5223 8.65613 52.8752 9.6288L55.7821 17.6411C55.9263 18.0387 56 18.4584 56 18.8812V22.068C56 24.5972 53.9637 26.6667 51.4285 26.6667C50.1601 26.6667 49.0165 26.1487 48.1905 25.3141Z" fill="#951515"/>
<path d="M18.666 34.0007C18.666 33.6325 18.9645 33.334 19.3327 33.334H23.3327C23.7008 33.334 23.9993 33.6325 23.9993 34.0007V36.6673C23.9993 37.0355 23.7008 37.334 23.3327 37.334H19.3327C18.9645 37.334 18.666 37.0355 18.666 36.6673V34.0007Z" fill="#951515"/>
<path d="M21.334 35.334C21.334 34.9659 21.6325 34.6673 22.0007 34.6673H26.0007C26.3688 34.6673 26.6673 34.9659 26.6673 35.334V36.6673C26.6673 37.0355 26.3688 37.334 26.0007 37.334H22.0007C21.6325 37.334 21.334 37.0355 21.334 36.6673V35.334ZM32.0007 35.334C32.0007 36.4385 31.1052 37.334 30.0007 37.334C28.8961 37.334 28.0007 36.4385 28.0007 35.334C28.0007 34.2295 28.8961 33.334 30.0007 33.334C31.1052 33.334 32.0007 34.2295 32.0007 35.334Z" fill="#951515"/>
</svg>
