<svg width="64" height="64" viewBox="0 0 64 64" fill="none" xmlns="http://www.w3.org/2000/svg">
<g clip-path="url(#clip0_1_1945)">
<path d="M17.179 36.826C15.6102 36.826 14.334 35.55 14.334 33.9816C14.334 32.4132 15.6102 31.1372 17.179 31.1372C18.7478 31.1372 20.024 32.4132 20.024 33.9816C20.024 35.55 18.7478 36.826 17.179 36.826ZM17.179 32.5047C16.3643 32.5047 15.7015 33.1672 15.7015 33.9816C15.7015 34.796 16.3643 35.4585 17.179 35.4585C17.9936 35.4585 18.6564 34.796 18.6564 33.9816C18.6564 33.1672 17.9936 32.5047 17.179 32.5047ZM46.7386 36.826C45.1698 36.826 43.8935 35.55 43.8935 33.9816C43.8935 32.4132 45.1698 31.1372 46.7386 31.1372C48.3075 31.1372 49.5836 32.4132 49.5836 33.9816C49.5836 35.55 48.3075 36.826 46.7386 36.826ZM46.7386 32.5047C45.9239 32.5047 45.261 33.1672 45.261 33.9816C45.261 34.796 45.9239 35.4585 46.7386 35.4585C47.5533 35.4585 48.2161 34.796 48.2161 33.9816C48.2161 33.1672 47.5533 32.5047 46.7386 32.5047ZM25.1674 49.6807C23.2822 49.6807 21.7485 48.1471 21.7485 46.2619C21.7485 44.3768 23.2822 42.8431 25.1674 42.8431C27.0525 42.8431 28.5862 44.3768 28.5862 46.2619C28.5862 48.1471 27.0525 49.6807 25.1674 49.6807ZM25.1674 44.2107C24.0363 44.2107 23.1161 45.1309 23.1161 46.2619C23.1161 47.393 24.0363 48.3132 25.1674 48.3132C26.2984 48.3132 27.2186 47.393 27.2186 46.2619C27.2186 45.1309 26.2986 44.2107 25.1674 44.2107ZM37.9566 49.6807C37.5076 49.6816 37.0629 49.5936 36.6481 49.4218C36.2333 49.25 35.8566 48.9978 35.5397 48.6797C34.7868 47.9269 34.4318 46.8848 34.5661 45.8208C34.7572 44.303 35.9979 43.0625 37.5155 42.871C38.5797 42.737 39.6214 43.0916 40.3742 43.8444C41.127 44.5973 41.482 45.639 41.3479 46.7028C41.1568 48.2205 39.9166 49.4611 38.3991 49.6529C38.2523 49.6714 38.1045 49.6807 37.9566 49.6807ZM37.9541 44.2109C37.8656 44.2109 37.7763 44.2165 37.6867 44.2279C36.779 44.3424 36.0371 45.0842 35.9229 45.9919C35.842 46.6336 36.0547 47.2608 36.5067 47.7126C36.9588 48.1646 37.5865 48.3771 38.2277 48.2961C39.1354 48.1815 39.8771 47.4395 39.9913 46.532C40.0722 45.8904 39.8593 45.2634 39.4075 44.8116C39.2169 44.6204 38.9903 44.469 38.7409 44.3659C38.4914 44.2628 38.224 44.2101 37.9541 44.2109ZM20.0995 2.61285L20.0999 2.61312L20.0995 2.61285ZM20.0989 2.6123L20.0995 2.61271L20.0989 2.6123ZM23.1583 1.72847L23.1576 1.72929C23.1578 1.72899 23.1581 1.72871 23.1583 1.72847ZM21.9691 1.42283C21.9691 1.42297 21.9691 1.42297 21.9691 1.42283C21.9691 1.42297 21.9691 1.42297 21.9691 1.42283ZM21.9689 1.42188V1.42215V1.42188ZM50.4346 10.5706L50.4352 10.571L50.4346 10.5706ZM50.434 10.5702L50.4342 10.5703L50.434 10.5702ZM49.6716 7.35665C49.6716 7.35665 49.6716 7.35678 49.6716 7.35665V7.35665ZM49.6722 7.35569L49.672 7.35596L49.6722 7.35569ZM49.6731 7.35487L49.6727 7.35528L49.6731 7.35487ZM49.6742 7.35364L49.6733 7.35446L49.6742 7.35364ZM33.1843 22.8989C33.003 22.8989 32.829 22.8269 32.7008 22.6987C32.5726 22.5704 32.5005 22.3965 32.5005 22.2152V20.1854C32.5005 20.004 32.5726 19.8301 32.7008 19.7019C32.829 19.5736 33.003 19.5016 33.1843 19.5016C33.3657 19.5016 33.5396 19.5736 33.6678 19.7019C33.796 19.8301 33.8681 20.004 33.8681 20.1854V22.2152C33.8681 22.3965 33.796 22.5704 33.6678 22.6987C33.5396 22.8269 33.3657 22.8989 33.1843 22.8989ZM37.5604 24.2665C37.379 24.2665 37.2051 24.1944 37.0769 24.0662C36.9487 23.938 36.8766 23.764 36.8766 23.5827V21.5529C36.8766 21.3715 36.9487 21.1976 37.0769 21.0694C37.2051 20.9412 37.379 20.8691 37.5604 20.8691C37.7417 20.8691 37.9156 20.9412 38.0439 21.0694C38.1721 21.1976 38.2441 21.3715 38.2441 21.5529V23.5827C38.2441 23.764 38.1721 23.938 38.0439 24.0662C37.9156 24.1944 37.7417 24.2665 37.5604 24.2665Z" fill="#951515"/>
<path d="M17.178 23.5688C17.6689 23.5688 18.0668 23.1708 18.0668 22.6799C18.0668 22.189 17.6689 21.791 17.178 21.791C16.687 21.791 16.2891 22.189 16.2891 22.6799C16.2891 23.1708 16.687 23.5688 17.178 23.5688Z" fill="#951515"/>
<path d="M55.7792 30.5532H53.6178V26.8747C53.6178 26.6934 53.5458 26.5194 53.4175 26.3912C53.2893 26.263 53.1154 26.1909 52.934 26.1909H29.9513C28.9288 23.5745 26.0746 21.546 23.2039 22.0056L13.5351 10.1963C12.0055 8.40113 9.19934 8.18985 7.50252 9.88598C5.81254 11.5756 5.95504 14.4426 7.8161 15.9472L14.1334 21.0522C14.5805 21.4135 15.2468 21.0953 15.2468 20.5204C15.2468 20.3139 15.1534 20.1185 14.9928 19.9885L8.67572 14.8837C7.43237 13.8785 7.34075 11.9813 8.46936 10.853C9.57883 9.7439 11.4827 9.85549 12.4774 11.063L22.4076 23.1917C22.4901 23.2925 22.5997 23.3676 22.7235 23.4082C22.8473 23.4488 22.9801 23.4532 23.1064 23.4209C25.2356 22.8752 27.4927 24.3483 28.4536 26.1909H11.0774C10.896 26.1909 10.7221 26.263 10.5939 26.3912C10.4656 26.5194 10.3936 26.6934 10.3936 26.8747V30.5531H8.29774C6.29692 30.5531 4.61145 32.1904 4.64905 34.1909C4.6857 36.1349 6.27285 37.7049 8.21842 37.7049H10.3935V44.9818C10.2473 45.8599 10.3661 46.8271 10.3661 47.7146C10.3661 50.1473 11.7861 52.2537 13.8404 53.2519V58.6134C13.8404 60.231 15.7857 61.6096 19.4659 62.6C22.8235 63.5035 27.277 64.0011 32.0058 64.0011C36.7345 64.0011 41.188 63.5035 44.5455 62.6C48.2255 61.6096 50.1708 60.2311 50.1708 58.6134V53.237C52.2104 52.2336 53.6179 50.1364 53.6179 47.7146V37.7049H55.793C57.731 37.7049 59.3659 36.062 59.3492 34.1222C59.3492 32.1543 57.7477 30.5532 55.7792 30.5532ZM10.3936 36.3375H8.21842C7.00406 36.3375 6.01603 35.3438 6.01603 34.1222C6.01603 32.9082 7.00406 31.9206 8.21842 31.9206H10.3935V36.3375H10.3936ZM48.8033 58.6134C48.8033 59.2706 47.5951 60.3631 44.1902 61.2795C40.9451 62.1528 36.6179 62.6336 32.0058 62.6336C27.3937 62.6336 23.0664 62.1526 19.8213 61.2794C16.4163 60.3631 15.2081 59.2705 15.2081 58.6132V55.6329C16.2259 56.818 17.9868 57.4942 19.4169 57.9987C22.7899 59.1885 27.2607 59.844 32.0058 59.844C36.7508 59.844 41.2215 59.1887 44.5945 57.9987C45.9911 57.5059 47.6267 56.8324 48.8033 55.9191V58.6134ZM28.3634 58.3405C24.2965 58.0324 20.9345 57.2252 18.6269 56.206C19.7279 55.8359 20.5855 54.9606 20.9082 53.8683H28.4237C27.5463 55.3187 27.258 56.9047 28.3634 58.3405ZM17.4515 55.0306C16.2221 55.0306 15.2218 54.0798 15.2218 52.9111C15.2218 52.1594 16.4025 50.5492 17.4518 49.3747C18.5008 50.5483 19.6814 52.1578 19.6814 52.9111C19.6814 54.0798 18.6811 55.0306 17.4515 55.0306ZM28.9689 56.1108C28.9689 55.277 30.2501 53.5032 31.3764 52.2266C32.5027 53.5031 33.7841 55.277 33.7841 56.1108C33.7841 57.4002 32.704 58.4491 31.3764 58.4491C30.0488 58.4491 28.9689 57.4002 28.9689 56.1108ZM34.3295 53.8682H43.0314C43.254 54.9708 44.0129 55.8895 45.0347 56.3553C42.4862 57.41 38.7781 58.2115 34.3248 58.4214C35.4983 56.9816 35.2257 55.3502 34.3295 53.8682ZM44.33 53.1983C44.33 52.4465 45.5109 50.8364 46.56 49.6618C47.6092 50.8356 48.7898 52.4452 48.7898 53.1983C48.7898 54.3671 47.7896 55.3178 46.5599 55.3178C45.3302 55.3178 44.33 54.3669 44.33 53.1983ZM49.8045 51.8863C49.0794 50.321 47.4501 48.5927 47.05 48.1815C46.7233 47.9055 46.3965 47.9055 46.0698 48.1815C45.6163 48.6476 43.5818 50.8059 43.0765 52.5008H33.3818C32.9079 51.8896 32.4033 51.3027 31.8701 50.7425C31.541 50.4614 31.2118 50.4614 30.8826 50.7425C30.3495 51.3027 29.845 51.8896 29.3711 52.5008H21.0047C20.6674 50.7724 18.4211 48.3873 17.9415 47.8945C17.6148 47.6185 17.288 47.6185 16.9613 47.8945C16.5448 48.3225 14.7974 50.1771 14.1237 51.7898C12.7738 50.9409 11.7335 49.419 11.7335 47.7148V45.2624C11.8002 44.8441 12.4199 41.6833 15.8774 41.5606C16.9204 41.5209 17.7613 41.9838 18.283 42.3794C18.7225 42.7127 19.374 42.3933 19.3799 41.8418C19.4157 38.455 23.6278 36.5588 26.1313 38.9388C26.4944 39.2837 27.1121 39.1204 27.2569 38.641C28.6413 34.0587 35.6304 35.0934 35.6304 39.8791C35.6558 40.5518 36.6043 40.9685 36.9377 40.2281C38.66 36.4025 44.5812 37.6397 44.6038 41.8383C44.6067 42.3916 45.2601 42.7135 45.7007 42.3794C46.4065 41.8441 47.2475 41.5611 48.1325 41.5611C50.2209 41.5611 51.9762 43.1869 52.1288 45.2624C52.1879 46.0647 52.2501 46.8829 52.2501 47.7146C52.2504 49.5036 51.2627 51.0652 49.8045 51.8863ZM52.2504 42.1215C50.7012 40.2798 48.029 39.6739 45.8452 40.7013C44.935 36.5944 39.6427 35.1098 36.7243 38.1398C35.2037 33.4556 28.5128 32.9116 26.3061 37.3425C23.2136 35.3384 18.9531 37.1287 18.1448 40.695C16.0041 39.6561 13.2938 40.2909 11.761 42.0829V27.5585H52.2503V42.1215H52.2504ZM57.3461 35.688C56.9308 36.1068 56.3792 36.3375 55.793 36.3375H53.6179V31.9206H55.7793C57.6867 31.9206 58.6972 34.3255 57.3461 35.688Z" fill="#951515"/>
<path d="M29.7104 8.05642C28.052 6.84193 26.6316 6.08788 25.4595 5.79742L24.5174 4.13478C25.0629 3.45225 25.2658 2.55147 24.8609 1.74148C24.4861 0.991809 23.7092 0.568835 22.8856 0.567604C22.1131 -0.0797808 21.0651 -0.184806 20.154 0.311467C19.1924 0.835365 18.6946 1.89246 18.9022 2.95694C18.4117 3.65095 18.3917 4.54873 18.8624 5.28774C19.3152 5.9983 20.0937 6.35947 20.8951 6.25171L21.8376 7.91502C21.5258 9.05198 21.4874 10.6118 21.7258 12.5859C22.1435 16.0418 26.2467 18.0281 29.2464 16.2896C32.2389 14.5553 32.5144 10.1098 29.7104 8.05642ZM21.8034 5.08111C21.5981 4.71885 21.1077 4.6234 20.7813 4.88418C20.3326 4.98565 20.0824 4.65786 20.0155 4.55297C19.9497 4.44986 19.7625 4.0943 20.0338 3.72671C20.3447 3.49806 20.4255 3.20049 20.2763 2.83427C20.1347 2.3034 20.3158 1.78032 20.8078 1.51229C21.149 1.32644 21.6577 1.27379 22.0789 1.68145C22.2876 1.94032 22.5468 2.02538 22.8564 1.93649C23.1665 1.92883 23.4902 2.05861 23.6375 2.35304C23.8216 2.72186 23.6342 3.07947 23.3875 3.35174C23.0231 3.5008 22.8583 3.9808 23.0513 4.32172L23.8435 5.71974C23.3543 5.82027 22.9106 6.07565 22.578 6.44808L21.8034 5.08111ZM30.276 12.5424C30.1271 13.6073 29.493 14.566 28.5604 15.1065C26.3983 16.3597 23.3855 14.9217 23.0833 12.422C22.741 9.58928 23.0236 7.62265 23.8396 7.16111C25.2804 6.34607 27.8761 8.40815 28.9023 9.15974C29.9654 9.93813 30.4919 11.2343 30.276 12.5424ZM35.905 16.5825C37.6335 19.5878 42.1801 19.9191 44.27 17.1351C45.4637 15.5447 46.2104 14.1747 46.5088 13.0342L48.1566 12.065C48.7968 12.5591 49.6516 12.6356 50.3989 12.2465C51.1761 11.8419 51.6077 11.0543 51.5299 10.2081C52.2418 9.39003 52.3395 8.22559 51.7685 7.29116C51.2277 6.40596 50.2675 5.97287 49.2748 6.14736C48.561 5.7367 47.6766 5.71454 46.9773 6.17636C46.2216 6.67536 45.9468 7.55687 46.078 8.42073L44.4307 9.38962C43.2703 9.05513 41.6632 8.99796 39.6197 9.2206C36.1648 9.59653 34.1804 13.5842 35.905 16.5825ZM46.6009 11.3934C46.4991 10.9046 46.2425 10.4616 45.8692 10.13L47.2542 9.31536C47.5918 9.11666 47.6891 8.61847 47.448 8.30723C47.3704 7.94812 47.387 7.5447 47.7308 7.31742C48.0055 7.13608 48.3508 7.18559 48.6156 7.34723C48.8393 7.57889 49.1062 7.63482 49.4164 7.51502C49.985 7.37266 50.3992 7.67256 50.6017 8.00405C50.8938 8.482 50.7891 9.02559 50.4011 9.41465C50.0889 9.65724 50.0102 9.95536 50.165 10.3087C50.2161 10.7626 49.8763 10.977 49.7677 11.0335C49.6575 11.091 49.2768 11.2496 48.939 10.9375C48.7868 10.5485 48.3143 10.386 47.9555 10.597L46.6009 11.3934ZM39.768 10.5798C41.0324 10.4419 44.3114 9.95386 45.1518 11.38C45.6277 12.1877 44.8892 14.0322 43.1762 16.3142C41.6646 18.328 38.3364 18.067 37.0905 15.9007C36.5532 14.9664 36.4835 13.8192 36.8869 12.8224C37.354 11.5818 38.458 10.7224 39.768 10.5798Z" fill="#951515"/>
</g>
<defs>
<clipPath id="clip0_1_1945">
<rect width="64" height="64" fill="white"/>
</clipPath>
</defs>
</svg>
