<svg width="16" height="16" viewBox="0 0 16 16" fill="none" xmlns="http://www.w3.org/2000/svg">
<path d="M5.87427 1.33325L3.46094 3.75325" stroke="#EF0000" stroke-width="1.5" stroke-miterlimit="10" stroke-linecap="round" stroke-linejoin="round"/>
<path d="M10.127 1.33325L12.5403 3.75325" stroke="#EF0000" stroke-width="1.5" stroke-miterlimit="10" stroke-linecap="round" stroke-linejoin="round"/>
<path d="M1.33398 5.23324C1.33398 3.9999 1.99398 3.8999 2.81398 3.8999H13.1873C14.0073 3.8999 14.6673 3.9999 14.6673 5.23324C14.6673 6.66657 14.0073 6.56657 13.1873 6.56657H2.81398C1.99398 6.56657 1.33398 6.66657 1.33398 5.23324Z" stroke="#EF0000" stroke-width="1.5"/>
<path d="M6.50586 9.33325V11.6999" stroke="#EF0000" stroke-width="1.5" stroke-linecap="round"/>
<path d="M9.57422 9.33325V11.6999" stroke="#EF0000" stroke-width="1.5" stroke-linecap="round"/>
<path d="M2.33398 6.66675L3.27398 12.4267C3.48732 13.7201 4.00065 14.6667 5.90732 14.6667H9.92732C12.0007 14.6667 12.3073 13.7601 12.5473 12.5067L13.6673 6.66675" stroke="#EF0000" stroke-width="1.5" stroke-linecap="round"/>
</svg>
