<svg width="13" height="13" viewBox="0 0 13 13" fill="none" xmlns="http://www.w3.org/2000/svg">
<path d="M12.42 6.12019C12.3724 5.99743 12.301 5.88529 12.21 5.79019L7.21 0.790185C7.11676 0.696947 7.00607 0.622986 6.88425 0.572526C6.76243 0.522066 6.63186 0.496094 6.5 0.496094C6.2337 0.496094 5.9783 0.601882 5.79 0.790185C5.69676 0.883424 5.6228 0.994114 5.57234 1.11594C5.52188 1.23776 5.49591 1.36833 5.49591 1.50019C5.49591 1.76649 5.6017 2.02188 5.79 2.21019L9.09 5.50019H1.5C1.23478 5.50019 0.98043 5.60554 0.792893 5.79308C0.605357 5.98062 0.5 6.23497 0.5 6.50019C0.5 6.7654 0.605357 7.01976 0.792893 7.20729C0.98043 7.39483 1.23478 7.50019 1.5 7.50019H9.09L5.79 10.7902C5.69627 10.8831 5.62188 10.9937 5.57111 11.1156C5.52034 11.2375 5.4942 11.3682 5.4942 11.5002C5.4942 11.6322 5.52034 11.7629 5.57111 11.8848C5.62188 12.0066 5.69627 12.1172 5.79 12.2102C5.88296 12.3039 5.99356 12.3783 6.11542 12.4291C6.23728 12.4798 6.36799 12.506 6.5 12.506C6.63201 12.506 6.76272 12.4798 6.88458 12.4291C7.00644 12.3783 7.11704 12.3039 7.21 12.2102L12.21 7.21019C12.301 7.11508 12.3724 7.00294 12.42 6.88019C12.52 6.63672 12.52 6.36365 12.42 6.12019Z" fill="#F92323"/>
</svg>
