<svg width="64" height="64" viewBox="0 0 64 64" fill="none" xmlns="http://www.w3.org/2000/svg">
<path d="M28.8263 45.1991C28.3197 45.1991 27.813 45.0124 27.413 44.6124L23.413 40.6124C22.6397 39.8391 22.6397 38.5591 23.413 37.7857C24.1863 37.0124 25.4663 37.0124 26.2397 37.7857L28.8263 40.3724L38.0797 31.1191C38.853 30.3457 40.133 30.3457 40.9063 31.1191C41.6797 31.8924 41.6797 33.1724 40.9063 33.9457L30.2397 44.6124C29.8663 45.0124 29.333 45.1991 28.8263 45.1991Z" fill="#D60000"/>
<path d="M37.333 18.0007H26.6663C24.1063 18.0007 19.333 18.0007 19.333 10.6673C19.333 3.33398 24.1063 3.33398 26.6663 3.33398H37.333C39.893 3.33398 44.6663 3.33398 44.6663 10.6673C44.6663 13.2273 44.6663 18.0007 37.333 18.0007ZM26.6663 7.33398C24.0263 7.33398 23.333 7.33398 23.333 10.6673C23.333 14.0007 24.0263 14.0007 26.6663 14.0007H37.333C40.6663 14.0007 40.6663 13.3073 40.6663 10.6673C40.6663 7.33398 39.973 7.33398 37.333 7.33398H26.6663Z" fill="#D60000"/>
<path d="M40 60.6658H24C9.01333 60.6658 6 53.7858 6 42.6658V26.6658C6 14.5058 10.4 9.30583 21.2267 8.74583C22.32 8.6925 23.28 9.51917 23.3333 10.6392C23.3867 11.7592 22.5333 12.6658 21.44 12.7192C13.8667 13.1458 10 15.4125 10 26.6658V42.6658C10 52.5325 11.9467 56.6658 24 56.6658H40C52.0533 56.6658 54 52.5325 54 42.6658V26.6658C54 15.4125 50.1333 13.1458 42.56 12.7192C41.4667 12.6658 40.6133 11.7058 40.6667 10.6125C40.72 9.51917 41.6533 8.66583 42.7733 8.71917C53.6 9.30583 58 14.5058 58 26.6392V42.6392C58 53.7858 54.9867 60.6658 40 60.6658Z" fill="#D60000"/>
</svg>
