<svg width="64" height="64" viewBox="0 0 64 64" fill="none" xmlns="http://www.w3.org/2000/svg">
<path d="M39.9997 60.6673H23.9997C9.51967 60.6673 3.33301 54.4806 3.33301 40.0006V24.0007C3.33301 9.52065 9.51967 3.33398 23.9997 3.33398H29.333C30.4263 3.33398 31.333 4.24065 31.333 5.33398C31.333 6.42732 30.4263 7.33398 29.333 7.33398H23.9997C11.7063 7.33398 7.33301 11.7073 7.33301 24.0007V40.0006C7.33301 52.294 11.7063 56.6673 23.9997 56.6673H39.9997C52.293 56.6673 56.6663 52.294 56.6663 40.0006V34.6673C56.6663 33.574 57.573 32.6673 58.6663 32.6673C59.7597 32.6673 60.6663 33.574 60.6663 34.6673V40.0006C60.6663 54.4806 54.4797 60.6673 39.9997 60.6673Z" fill="#D60000"/>
<path d="M22.6666 47.1735C21.0399 47.1735 19.5466 46.5868 18.4532 45.5202C17.1466 44.2135 16.5866 42.3202 16.8799 40.3202L18.0266 32.2935C18.2399 30.7468 19.2532 28.7468 20.3466 27.6535L41.3599 6.64016C46.6666 1.33349 52.0532 1.33349 57.3599 6.64016C60.2666 9.54682 61.5732 12.5068 61.3066 15.4668C61.0666 17.8668 59.7866 20.2135 57.3599 22.6135L36.3466 43.6268C35.2532 44.7202 33.2532 45.7335 31.7066 45.9468L23.6799 47.0935C23.3332 47.1735 22.9866 47.1735 22.6666 47.1735ZM44.1866 9.46682L23.1732 30.4802C22.6666 30.9868 22.0799 32.1602 21.9732 32.8535L20.8266 40.8802C20.7199 41.6535 20.8799 42.2935 21.2799 42.6935C21.6799 43.0935 22.3199 43.2535 23.0932 43.1468L31.1199 42.0002C31.8132 41.8935 33.0132 41.3068 33.4932 40.8002L54.5066 19.7868C56.2399 18.0535 57.1466 16.5068 57.2799 15.0668C57.4399 13.3335 56.5332 11.4935 54.5066 9.44016C50.2399 5.17349 47.3066 6.37349 44.1866 9.46682Z" fill="#D60000"/>
<path d="M52.9332 26.2128C52.7465 26.2128 52.5598 26.1861 52.3998 26.1328C45.3865 24.1594 39.8132 18.5861 37.8398 11.5728C37.5465 10.5061 38.1598 9.41275 39.2265 9.09275C40.2932 8.79942 41.3865 9.41275 41.6798 10.4794C43.2798 16.1594 47.7865 20.6661 53.4665 22.2661C54.5332 22.5594 55.1465 23.6794 54.8532 24.7461C54.6132 25.6528 53.8132 26.2128 52.9332 26.2128Z" fill="#D60000"/>
</svg>
