<svg width="64" height="64" viewBox="0 0 64 64" fill="none" xmlns="http://www.w3.org/2000/svg">
<path d="M31.9997 60.8273C30.1597 60.8273 28.4263 59.894 27.1997 58.2673L23.1997 52.934C23.1197 52.8273 22.7997 52.6673 22.6397 52.6673H21.333C10.213 52.6673 3.33301 49.654 3.33301 34.6673V21.334C3.33301 9.54732 9.54634 3.33398 21.333 3.33398H31.9997C33.093 3.33398 33.9997 4.24065 33.9997 5.33398C33.9997 6.42732 33.093 7.33398 31.9997 7.33398H21.333C11.7863 7.33398 7.33301 11.7873 7.33301 21.334V34.6673C7.33301 46.7207 11.4663 48.6673 21.333 48.6673H22.6663C24.0263 48.6673 25.573 49.4407 26.3997 50.534L30.3997 55.8673C31.333 57.094 32.6663 57.094 33.5997 55.8673L37.5997 50.534C38.4797 49.3607 39.8663 48.6673 41.333 48.6673H42.6663C52.213 48.6673 56.6663 44.214 56.6663 34.6673V21.334C56.6663 20.2407 57.573 19.334 58.6663 19.334C59.7597 19.334 60.6663 20.2407 60.6663 21.334V34.6673C60.6663 46.454 54.453 52.6673 42.6663 52.6673H41.333C41.1197 52.6673 40.933 52.774 40.7997 52.934L36.7997 58.2673C35.573 59.894 33.8397 60.8273 31.9997 60.8273Z" fill="#D60000"/>
<path d="M31.9997 31.9993C30.5063 31.9993 29.333 30.7993 29.333 29.3327C29.333 27.866 30.533 26.666 31.9997 26.666C33.4663 26.666 34.6663 27.866 34.6663 29.3327C34.6663 30.7993 33.493 31.9993 31.9997 31.9993Z" fill="#D60000"/>
<path d="M42.6667 31.9993C41.1733 31.9993 40 30.7993 40 29.3327C40 27.866 41.2 26.666 42.6667 26.666C44.1333 26.666 45.3333 27.866 45.3333 29.3327C45.3333 30.7993 44.16 31.9993 42.6667 31.9993Z" fill="#D60000"/>
<path d="M21.3337 31.9993C19.8403 31.9993 18.667 30.7993 18.667 29.3327C18.667 27.866 19.867 26.666 21.3337 26.666C22.8003 26.666 24.0003 27.866 24.0003 29.3327C24.0003 30.7993 22.827 31.9993 21.3337 31.9993Z" fill="#D60000"/>
<path d="M48.0002 20.6673C45.7069 20.6673 40.2935 17.9473 38.6402 12.9606C37.9735 10.9873 38.1335 8.72062 39.0669 6.93396C39.8935 5.33396 41.2802 4.16062 42.9869 3.62729C44.7202 3.09396 46.5602 3.33396 48.0002 4.21396C49.4402 3.33396 51.2802 3.09396 53.0402 3.62729C54.7469 4.16062 56.1335 5.33396 56.9602 6.93396C57.8935 8.72062 58.0535 10.9873 57.3869 12.9606C55.7069 18.0273 50.0535 20.6673 48.0002 20.6673ZM42.4269 11.6806C43.5469 15.0406 47.3602 16.5873 48.0535 16.6673C48.8269 16.5873 52.5602 14.854 53.6002 11.7073C53.9202 10.7473 53.8402 9.60063 53.4135 8.77396C53.0669 8.10729 52.5602 7.68062 51.8669 7.46729C51.1202 7.20062 50.1069 7.33396 49.6535 8.00062C49.2802 8.53396 48.6935 8.85396 48.0535 8.88062C47.4135 8.88062 46.8002 8.58729 46.4002 8.08062C45.8402 7.36062 44.8535 7.25396 44.1335 7.46729C43.4402 7.68062 42.9335 8.10729 42.5869 8.77396C42.1869 9.60063 42.1069 10.7206 42.4269 11.6806Z" fill="#D60000"/>
</svg>
