<svg width="65" height="64" viewBox="0 0 65 64" fill="none" xmlns="http://www.w3.org/2000/svg">
<path d="M47.4863 25.6543H33.4863C32.393 25.6543 31.4863 24.7476 31.4863 23.6543C31.4863 22.561 32.393 21.6543 33.4863 21.6543H47.4863C48.5797 21.6543 49.4863 22.561 49.4863 23.6543C49.4863 24.7476 48.6063 25.6543 47.4863 25.6543Z" fill="#D60000"/>
<path d="M19.4865 27.6808C18.9798 27.6808 18.4732 27.4942 18.0732 27.0942L16.0732 25.0942C15.2998 24.3208 15.2998 23.0408 16.0732 22.2675C16.8465 21.4942 18.1265 21.4942 18.8998 22.2675L19.4865 22.8542L24.0732 18.2675C24.8465 17.4942 26.1265 17.4942 26.8998 18.2675C27.6732 19.0408 27.6732 20.3208 26.8998 21.0942L20.8998 27.0942C20.5265 27.4675 20.0198 27.6808 19.4865 27.6808Z" fill="#D60000"/>
<path d="M47.4863 44.3203H33.4863C32.393 44.3203 31.4863 43.4136 31.4863 42.3203C31.4863 41.227 32.393 40.3203 33.4863 40.3203H47.4863C48.5797 40.3203 49.4863 41.227 49.4863 42.3203C49.4863 43.4136 48.6063 44.3203 47.4863 44.3203Z" fill="#D60000"/>
<path d="M19.4865 46.3468C18.9798 46.3468 18.4732 46.1602 18.0732 45.7602L16.0732 43.7602C15.2998 42.9868 15.2998 41.7068 16.0732 40.9335C16.8465 40.1602 18.1265 40.1602 18.8998 40.9335L19.4865 41.5202L24.0732 36.9335C24.8465 36.1602 26.1265 36.1602 26.8998 36.9335C27.6732 37.7068 27.6732 38.9868 26.8998 39.7602L20.8998 45.7602C20.5265 46.1335 20.0198 46.3468 19.4865 46.3468Z" fill="#D60000"/>
<path d="M40.4997 60.6673H24.4997C10.0197 60.6673 3.83301 54.4806 3.83301 40.0006V24.0006C3.83301 9.52065 10.0197 3.33398 24.4997 3.33398H40.4997C54.9797 3.33398 61.1663 9.52065 61.1663 24.0006V40.0006C61.1663 54.4806 54.9797 60.6673 40.4997 60.6673ZM24.4997 7.33398C12.2063 7.33398 7.83301 11.7073 7.83301 24.0006V40.0006C7.83301 52.294 12.2063 56.6673 24.4997 56.6673H40.4997C52.793 56.6673 57.1663 52.294 57.1663 40.0006V24.0006C57.1663 11.7073 52.793 7.33398 40.4997 7.33398H24.4997Z" fill="#D60000"/>
</svg>
