<svg width="40" height="37" viewBox="0 0 40 37" fill="none" xmlns="http://www.w3.org/2000/svg">
<path d="M21.9373 31.2934L28.0719 35.1308C31.1665 37.067 35.1935 36.5774 37.7349 33.9568L37.8168 33.8724C40.7932 30.8038 40.7179 25.9028 37.6492 22.9264C34.991 20.3486 30.8782 20.0136 27.8395 22.129L21.8178 26.3184C20.0621 27.5404 20.1257 30.1584 21.9386 31.2934H21.9373Z" fill="#F92323"/>
<path d="M8.50189 20.7398L7.93179 17.0829C7.6448 15.2376 6.10723 13.8441 4.24242 13.739L4.18268 13.7351C1.99971 13.6104 0.129701 15.2804 0.00633227 17.4647C-0.100154 19.3555 1.14652 21.058 2.98276 21.5255L6.61889 22.4514C7.67986 22.7215 8.6707 21.8203 8.50189 20.7385V20.7398Z" fill="#F92323"/>
<path d="M18.6412 24.0319L26.4199 18.6101C30.3443 15.8752 31.8235 10.7704 29.9716 6.36027L29.9119 6.21872C27.7419 1.05282 21.7955 -1.37559 16.6296 0.794398C12.1559 2.6735 9.63918 7.4589 10.6261 12.2092L12.5806 21.6216C13.1506 24.3669 16.34 25.6356 18.6399 24.0319H18.6412Z" fill="#F92323"/>
</svg>
