<svg width="12" height="12" viewBox="0 0 12 12" fill="none" xmlns="http://www.w3.org/2000/svg">
<path d="M9.78581 11.2171C9.38595 11.5019 6.82028 9.69652 6.3289 9.69255C5.83751 9.68862 3.24296 11.4525 2.84777 11.1613C2.45257 10.8701 3.38165 7.87901 3.23359 7.41181C3.08553 6.9446 0.601405 5.02908 0.757013 4.5643C0.912654 4.09953 4.05252 4.05636 4.45238 3.77155C4.85224 3.48677 5.91155 0.539039 6.40297 0.542973C6.89432 0.546941 7.90576 3.51133 8.30095 3.80254C8.69615 4.09371 11.835 4.18744 11.9831 4.65465C12.1311 5.12185 9.61635 6.99714 9.4607 7.46192C9.3051 7.9267 10.1857 10.9323 9.78581 11.2171Z" fill="#F8B84E"/>
</svg>
