<svg width="16" height="17" viewBox="0 0 16 17" fill="none" xmlns="http://www.w3.org/2000/svg">
<path d="M3.8269 11.1663C3.90023 10.8397 3.7669 10.373 3.53357 10.1397L1.91356 8.51967C1.4069 8.01301 1.2069 7.47301 1.35356 7.00634C1.5069 6.53967 1.98023 6.21967 2.6869 6.09967L4.7669 5.75301C5.0669 5.69967 5.43356 5.43301 5.57356 5.15967L6.72023 2.85967C7.05357 2.19967 7.5069 1.83301 8.00023 1.83301C8.49357 1.83301 8.9469 2.19967 9.28023 2.85967L10.4269 5.15967C10.5136 5.33301 10.6936 5.49967 10.8869 5.61301L3.7069 12.793C3.61356 12.8863 3.45356 12.7997 3.48023 12.6663L3.8269 11.1663Z" fill="#FFC727"/>
<path d="M12.4672 10.1403C12.2272 10.3803 12.0939 10.8403 12.1739 11.1669L12.6339 13.1736C12.8272 14.0069 12.7072 14.6336 12.2939 14.9336C12.1272 15.0536 11.9272 15.1136 11.6939 15.1136C11.3539 15.1136 10.9539 14.9869 10.5139 14.7269L8.56052 13.5669C8.25385 13.3869 7.74719 13.3869 7.44052 13.5669L5.48719 14.7269C4.74719 15.1603 4.11385 15.2336 3.70719 14.9336C3.55385 14.8203 3.44052 14.6669 3.36719 14.4669L11.4739 6.36026C11.7805 6.05359 12.2139 5.91359 12.6339 5.98692L13.3072 6.10026C14.0139 6.22026 14.4872 6.54026 14.6405 7.00692C14.7872 7.47359 14.5872 8.01359 14.0805 8.52026L12.4672 10.1403Z" fill="#FFC727"/>
</svg>
