<svg width="41" height="40" viewBox="0 0 41 40" fill="none" xmlns="http://www.w3.org/2000/svg">
<rect x="0.888672" width="40" height="40" rx="20" fill="#F5F2ED"/>
<g clip-path="url(#clip0_154_13612)">
<path d="M29.1387 24.875C29.7589 24.875 30.2637 24.3703 30.2637 23.75C30.2637 23.1298 29.7589 22.625 29.1387 22.625C28.5184 22.625 28.0137 23.1298 28.0137 23.75C28.0137 24.3703 28.5184 24.875 29.1387 24.875ZM29.1387 23.375C29.2129 23.3749 29.2856 23.3969 29.3474 23.4381C29.4091 23.4793 29.4573 23.5379 29.4858 23.6066C29.5142 23.6752 29.5217 23.7507 29.5072 23.8235C29.4928 23.8964 29.457 23.9633 29.4045 24.0158C29.352 24.0683 29.285 24.1041 29.2122 24.1186C29.1393 24.133 29.0638 24.1256 28.9952 24.0971C28.9266 24.0686 28.868 24.0205 28.8268 23.9587C28.7856 23.8969 28.7636 23.8243 28.7637 23.75C28.7637 23.5434 28.9317 23.375 29.1387 23.375ZM26.9614 14.1823C26.6258 13.2504 26.0018 12.6178 25.2038 12.401C24.7718 12.2836 24.3184 12.3088 23.8744 12.4479C23.8808 12.3403 23.8887 12.233 23.8887 12.125C23.8887 9.85063 22.5428 8 20.8887 8C19.2345 8 17.8887 9.85063 17.8887 12.125C17.8887 12.233 17.8965 12.3403 17.9025 12.4475C17.4585 12.308 17.0052 12.2829 16.5732 12.4006C15.7752 12.6174 15.1512 13.25 14.8155 14.1819C14.4968 15.0673 14.4773 16.1274 14.76 17.1676C14.868 17.5651 15.018 17.9424 15.2025 18.2952C15.0421 18.5319 14.9121 18.7878 14.8155 19.0569C14.4968 19.9423 14.4773 21.0024 14.76 22.0426C15.2847 23.9731 16.728 25.3141 18.1545 25.3141C18.2558 25.3141 18.357 25.3066 18.4579 25.2927C18.9259 26.0604 20.5137 28.8661 20.5137 31.625C20.5137 31.7245 20.5532 31.8198 20.6235 31.8902C20.6938 31.9605 20.7892 32 20.8887 32C20.9881 32 21.0835 31.9605 21.1538 31.8902C21.2242 31.8198 21.2637 31.7245 21.2637 31.625C21.2637 28.8661 22.8514 26.0604 23.3194 25.2931C23.4203 25.307 23.5215 25.3145 23.6228 25.3145C25.0493 25.3145 26.4923 23.9735 27.0173 22.043C27.3 21.0031 27.2802 19.9426 26.9618 19.0573C26.8653 18.7881 26.7352 18.5323 26.5748 18.2956C26.7593 17.9427 26.9093 17.5655 27.0173 17.168C27.3 16.1278 27.2802 15.0676 26.9614 14.1823ZM25.0069 13.1244C25.5619 13.2751 26.0055 13.7413 26.2557 14.4361C26.5227 15.1779 26.5358 16.0782 26.2935 16.9711C26.2249 17.2235 26.1323 17.4624 26.028 17.6941C25.7846 17.5 25.5042 17.3576 25.2038 17.2756C24.7669 17.1568 24.315 17.1733 23.8748 17.3094C23.8808 17.2063 23.8887 17.1035 23.8887 17C23.8887 15.8007 23.5122 14.723 22.9163 13.9685C23.5485 13.2639 24.3297 12.9406 25.0069 13.1244ZM22.5038 24.5945C22.5019 24.5982 22.4982 24.6005 22.4963 24.6046C22.4955 24.6057 22.4959 24.6073 22.4955 24.6084C22.0868 25.2346 21.5179 25.625 20.8887 25.625C20.2594 25.625 19.6905 25.2346 19.2818 24.608C19.281 24.6069 19.2814 24.6054 19.281 24.6042C19.2792 24.6001 19.2754 24.5979 19.2735 24.5941C18.8813 23.9866 18.6387 23.1605 18.6387 22.25C18.6387 20.3892 19.6478 18.875 20.8887 18.875C22.1295 18.875 23.1387 20.3892 23.1387 22.25C23.1387 23.1605 22.896 23.9866 22.5038 24.5945ZM22.1892 18.5382C21.795 18.2761 21.3548 18.125 20.8887 18.125C20.4222 18.125 19.9823 18.2761 19.5882 18.5386C19.3144 18.194 19.0118 17.9094 18.6912 17.6934C18.6576 17.4637 18.6401 17.2321 18.6387 17C18.6387 15.1392 19.6478 13.625 20.8887 13.625C22.1295 13.625 23.1387 15.1392 23.1387 17C23.1387 17.234 23.118 17.4654 23.0862 17.6934C22.7655 17.9094 22.4629 18.194 22.1892 18.5382ZM18.6387 12.125C18.6387 10.2643 19.6478 8.75 20.8887 8.75C22.1295 8.75 23.1387 10.2643 23.1387 12.125C23.1387 12.3646 23.1177 12.6013 23.0839 12.8334C22.8402 12.9969 22.6073 13.1971 22.3898 13.4341C21.9477 13.0809 21.4358 12.875 20.8887 12.875C20.3415 12.875 19.8297 13.0809 19.3875 13.4341C19.1807 13.2072 18.9477 13.0055 18.6934 12.8334C18.6582 12.5989 18.6399 12.3621 18.6387 12.125ZM15.5217 14.4361C15.7718 13.7409 16.2154 13.2751 16.7704 13.1244C17.4473 12.9406 18.2288 13.2643 18.8614 13.9685C18.2652 14.723 17.8887 15.8007 17.8887 17C17.8887 17.1035 17.8965 17.2063 17.9022 17.3094C17.4627 17.1733 17.0108 17.1571 16.5732 17.276C16.2728 17.3581 15.9924 17.5004 15.7489 17.6945C15.6418 17.4608 15.5532 17.2191 15.4838 16.9715C15.2412 16.0782 15.2547 15.1779 15.5217 14.4361ZM15.4838 21.8461C15.2415 20.9532 15.2547 20.0529 15.5217 19.3111C15.7718 18.6159 16.2154 18.1501 16.7704 17.9994C17.5088 17.7999 18.3657 18.2041 19.017 19.0317C18.3304 19.7881 17.8887 20.9487 17.8887 22.25C17.8887 23.0971 18.0758 23.885 18.3957 24.5409C17.2358 24.7374 15.9525 23.57 15.4838 21.8461ZM19.7442 26.0615C19.9825 26.1983 20.2429 26.2922 20.5137 26.339V27.8263C20.2912 27.2237 20.0343 26.6345 19.7442 26.0615ZM21.2637 26.3394C21.5343 26.2921 21.7947 26.1982 22.0332 26.0619C21.743 26.6349 21.4861 27.2241 21.2637 27.8266V26.3394ZM26.2935 21.8461C25.8248 23.5704 24.5389 24.7359 23.3817 24.5405C23.7015 23.885 23.8887 23.0971 23.8887 22.25C23.8887 20.9487 23.4469 19.7881 22.7603 19.0314C23.412 18.2037 24.2693 17.7987 25.0069 17.9994C25.5619 18.1501 26.0055 18.6163 26.2557 19.3111C26.5227 20.0529 26.5362 20.9532 26.2935 21.8461ZM28.3887 8C28.2892 8 28.1938 8.03951 28.1235 8.10983C28.0532 8.18016 28.0137 8.27554 28.0137 8.375V8.75H27.6387C27.5392 8.75 27.4438 8.78951 27.3735 8.85983C27.3032 8.93016 27.2637 9.02554 27.2637 9.125C27.2637 9.22446 27.3032 9.31984 27.3735 9.39017C27.4438 9.46049 27.5392 9.5 27.6387 9.5H28.0137V9.875C28.0137 9.97446 28.0532 10.0698 28.1235 10.1402C28.1938 10.2105 28.2892 10.25 28.3887 10.25C28.4881 10.25 28.5835 10.2105 28.6538 10.1402C28.7242 10.0698 28.7637 9.97446 28.7637 9.875V9.5H29.1387C29.2381 9.5 29.3335 9.46049 29.4038 9.39017C29.4742 9.31984 29.5137 9.22446 29.5137 9.125C29.5137 9.02554 29.4742 8.93016 29.4038 8.85983C29.3335 8.78951 29.2381 8.75 29.1387 8.75H28.7637V8.375C28.7637 8.27554 28.7242 8.18016 28.6538 8.10983C28.5835 8.03951 28.4881 8 28.3887 8V8ZM9.26367 12.875H9.63867V13.25C9.63867 13.3495 9.67818 13.4448 9.74851 13.5152C9.81883 13.5855 9.91422 13.625 10.0137 13.625C10.1131 13.625 10.2085 13.5855 10.2788 13.5152C10.3492 13.4448 10.3887 13.3495 10.3887 13.25V12.875H10.7637C10.8631 12.875 10.9585 12.8355 11.0288 12.7652C11.0992 12.6948 11.1387 12.5995 11.1387 12.5C11.1387 12.4005 11.0992 12.3052 11.0288 12.2348C10.9585 12.1645 10.8631 12.125 10.7637 12.125H10.3887V11.75C10.3887 11.6505 10.3492 11.5552 10.2788 11.4848C10.2085 11.4145 10.1131 11.375 10.0137 11.375C9.91422 11.375 9.81883 11.4145 9.74851 11.4848C9.67818 11.5552 9.63867 11.6505 9.63867 11.75V12.125H9.26367C9.16422 12.125 9.06883 12.1645 8.99851 12.2348C8.92818 12.3052 8.88867 12.4005 8.88867 12.5C8.88867 12.5995 8.92818 12.6948 8.99851 12.7652C9.06883 12.8355 9.16422 12.875 9.26367 12.875ZM32.1387 16.625C32.0392 16.625 31.9438 16.6645 31.8735 16.7348C31.8032 16.8052 31.7637 16.9005 31.7637 17C31.7637 17.0995 31.8032 17.1948 31.8735 17.2652C31.9438 17.3355 32.0392 17.375 32.1387 17.375H32.5137C32.6131 17.375 32.7085 17.3355 32.7788 17.2652C32.8492 17.1948 32.8887 17.0995 32.8887 17C32.8887 16.9005 32.8492 16.8052 32.7788 16.7348C32.7085 16.6645 32.6131 16.625 32.5137 16.625H32.1387ZM31.7637 15.875C31.7637 15.7755 31.7242 15.6802 31.6538 15.6098C31.5835 15.5395 31.4881 15.5 31.3887 15.5C31.2892 15.5 31.1938 15.5395 31.1235 15.6098C31.0532 15.6802 31.0137 15.7755 31.0137 15.875V16.25C31.0137 16.3495 31.0532 16.4448 31.1235 16.5152C31.1938 16.5855 31.2892 16.625 31.3887 16.625C31.4881 16.625 31.5835 16.5855 31.6538 16.5152C31.7242 16.4448 31.7637 16.3495 31.7637 16.25V15.875ZM30.6387 17.375C30.7381 17.375 30.8335 17.3355 30.9038 17.2652C30.9742 17.1948 31.0137 17.0995 31.0137 17C31.0137 16.9005 30.9742 16.8052 30.9038 16.7348C30.8335 16.6645 30.7381 16.625 30.6387 16.625H30.2637C30.1642 16.625 30.0688 16.6645 29.9985 16.7348C29.9282 16.8052 29.8887 16.9005 29.8887 17C29.8887 17.0995 29.9282 17.1948 29.9985 17.2652C30.0688 17.3355 30.1642 17.375 30.2637 17.375H30.6387ZM31.3887 18.5C31.4881 18.5 31.5835 18.4605 31.6538 18.3902C31.7242 18.3198 31.7637 18.2245 31.7637 18.125V17.75C31.7637 17.6505 31.7242 17.5552 31.6538 17.4848C31.5835 17.4145 31.4881 17.375 31.3887 17.375C31.2892 17.375 31.1938 17.4145 31.1235 17.4848C31.0532 17.5552 31.0137 17.6505 31.0137 17.75V18.125C31.0137 18.2245 31.0532 18.3198 31.1235 18.3902C31.1938 18.4605 31.2892 18.5 31.3887 18.5ZM13.3887 16.625C13.4881 16.625 13.5835 16.5855 13.6538 16.5152C13.7242 16.4448 13.7637 16.3495 13.7637 16.25C13.7637 16.1505 13.7242 16.0552 13.6538 15.9848C13.5835 15.9145 13.4881 15.875 13.3887 15.875H13.0137C12.9142 15.875 12.8188 15.9145 12.7485 15.9848C12.6782 16.0552 12.6387 16.1505 12.6387 16.25C12.6387 16.3495 12.6782 16.4448 12.7485 16.5152C12.8188 16.5855 12.9142 16.625 13.0137 16.625H13.3887ZM12.2637 15.875C12.3631 15.875 12.4585 15.8355 12.5288 15.7652C12.5992 15.6948 12.6387 15.5995 12.6387 15.5V15.125C12.6387 15.0255 12.5992 14.9302 12.5288 14.8598C12.4585 14.7895 12.3631 14.75 12.2637 14.75C12.1642 14.75 12.0688 14.7895 11.9985 14.8598C11.9282 14.9302 11.8887 15.0255 11.8887 15.125V15.5C11.8887 15.5995 11.9282 15.6948 11.9985 15.7652C12.0688 15.8355 12.1642 15.875 12.2637 15.875ZM11.5137 15.875H11.1387C11.0392 15.875 10.9438 15.9145 10.8735 15.9848C10.8032 16.0552 10.7637 16.1505 10.7637 16.25C10.7637 16.3495 10.8032 16.4448 10.8735 16.5152C10.9438 16.5855 11.0392 16.625 11.1387 16.625H11.5137C11.6131 16.625 11.7085 16.5855 11.7788 16.5152C11.8492 16.4448 11.8887 16.3495 11.8887 16.25C11.8887 16.1505 11.8492 16.0552 11.7788 15.9848C11.7085 15.9145 11.6131 15.875 11.5137 15.875ZM11.8887 17.375C11.8887 17.4745 11.9282 17.5698 11.9985 17.6402C12.0688 17.7105 12.1642 17.75 12.2637 17.75C12.3631 17.75 12.4585 17.7105 12.5288 17.6402C12.5992 17.5698 12.6387 17.4745 12.6387 17.375V17C12.6387 16.9005 12.5992 16.8052 12.5288 16.7348C12.4585 16.6645 12.3631 16.625 12.2637 16.625C12.1642 16.625 12.0688 16.6645 11.9985 16.7348C11.9282 16.8052 11.8887 16.9005 11.8887 17V17.375ZM16.0137 10.0625C16.0137 9.54575 15.5933 9.125 15.0762 9.125C14.559 9.125 14.1387 9.54575 14.1387 10.0625C14.1387 10.5793 14.559 11 15.0762 11C15.5933 11 16.0137 10.5793 16.0137 10.0625ZM14.8887 10.0625C14.8887 10.0378 14.8936 10.0134 14.9031 9.99063C14.9126 9.96786 14.9265 9.94717 14.944 9.92976C14.9614 9.91235 14.9822 9.89855 15.005 9.88916C15.0278 9.87976 15.0522 9.87495 15.0769 9.875C15.1016 9.87505 15.126 9.87996 15.1488 9.88944C15.1716 9.89893 15.1922 9.91281 15.2097 9.93029C15.2271 9.94777 15.2409 9.96851 15.2503 9.99132C15.2597 10.0141 15.2645 10.0386 15.2644 10.0633C15.2643 10.1131 15.2444 10.1608 15.2091 10.196C15.1738 10.2312 15.126 10.2508 15.0762 10.2508C15.0263 10.2507 14.9786 10.2308 14.9434 10.1955C14.9083 10.1602 14.8886 10.1123 14.8887 10.0625ZM30.0762 14C30.5933 14 31.0137 13.5792 31.0137 13.0625C31.0137 12.5458 30.5933 12.125 30.0762 12.125C29.559 12.125 29.1387 12.5458 29.1387 13.0625C29.1387 13.5792 29.559 14 30.0762 14ZM30.0762 12.875C30.126 12.8751 30.1737 12.895 30.2089 12.9303C30.2441 12.9656 30.2638 13.0134 30.2637 13.0633C30.2636 13.1131 30.2437 13.1608 30.2084 13.196C30.1731 13.2312 30.1252 13.2508 30.0754 13.2508C30.0256 13.2507 29.9778 13.2308 29.9427 13.1955C29.9075 13.1602 29.8878 13.1123 29.8879 13.0625C29.888 13.0127 29.9079 12.9649 29.9432 12.9298C29.9785 12.8946 30.0263 12.8749 30.0762 12.875ZM10.5462 20.0971C10.4886 20.1256 10.4392 20.1684 10.4027 20.2214C10.3663 20.2743 10.344 20.3357 10.338 20.3998L10.269 21.1546L9.6848 21.6373C9.63523 21.6782 9.59701 21.7312 9.57381 21.7911C9.55061 21.8511 9.54321 21.916 9.55232 21.9796C9.56143 22.0432 9.58675 22.1034 9.62584 22.1545C9.66493 22.2055 9.71648 22.2456 9.77555 22.271L10.4719 22.5695L10.7505 23.2745C10.7743 23.3341 10.813 23.3867 10.8628 23.4271C10.9127 23.4676 10.9721 23.4946 11.0353 23.5056C11.0986 23.5165 11.1636 23.5111 11.2241 23.4899C11.2847 23.4686 11.3388 23.4321 11.3813 23.384L11.8808 22.8136L12.6375 22.7667C12.7018 22.7629 12.7639 22.7425 12.818 22.7076C12.872 22.6728 12.9162 22.6246 12.9462 22.5677C12.9763 22.5108 12.9911 22.4471 12.9894 22.3828C12.9877 22.3185 12.9694 22.2557 12.9364 22.2005L12.5487 21.5495L12.738 20.8153C12.7538 20.753 12.7534 20.6878 12.7368 20.6258C12.7202 20.5638 12.688 20.507 12.6432 20.461C12.5985 20.415 12.5427 20.3812 12.4812 20.3628C12.4196 20.3445 12.3544 20.3422 12.2918 20.3563L11.5523 20.5239L10.9129 20.1174C10.8587 20.0828 10.7964 20.0627 10.7322 20.0592C10.668 20.0556 10.6039 20.0687 10.5462 20.0971ZM11.0022 21.3781L11.0292 21.08L11.2819 21.2405C11.3237 21.267 11.3703 21.2851 11.4191 21.2935C11.4679 21.3019 11.5179 21.3006 11.5662 21.2896L11.8579 21.2233L11.7833 21.5131C11.7585 21.6099 11.7735 21.7126 11.8242 21.7985L11.9775 22.0557L11.6787 22.0745C11.6294 22.0776 11.5811 22.0905 11.5368 22.1123C11.4925 22.1341 11.4529 22.1645 11.4203 22.2016L11.2227 22.4274L11.1124 22.1488C11.0942 22.1028 11.0672 22.0609 11.0327 22.0254C10.9983 21.9899 10.9572 21.9616 10.9118 21.9421L10.6369 21.8244L10.8675 21.6335C10.9444 21.5697 10.9928 21.4779 11.0022 21.3781Z" fill="#F92323"/>
</g>
<defs>
<clipPath id="clip0_154_13612">
<rect width="24" height="24" fill="white" transform="translate(8.88867 8)"/>
</clipPath>
</defs>
</svg>
