<svg width="41" height="40" viewBox="0 0 41 40" fill="none" xmlns="http://www.w3.org/2000/svg">
<rect x="0.111328" width="40" height="40" rx="20" fill="#F5F2ED"/>
<path d="M12.1002 22.6604L10.5802 21.1404C9.96023 20.5204 9.96023 19.5004 10.5802 18.8804L12.1002 17.3604C12.3602 17.1004 12.5702 16.5904 12.5702 16.2304V14.0804C12.5702 13.2004 13.2902 12.4804 14.1702 12.4804H16.3202C16.6802 12.4804 17.1902 12.2704 17.4502 12.0104L18.9702 10.4904C19.5902 9.87039 20.6102 9.87039 21.2302 10.4904L22.7502 12.0104C23.0102 12.2704 23.5202 12.4804 23.8802 12.4804H26.0302C26.9102 12.4804 27.6302 13.2004 27.6302 14.0804V16.2304C27.6302 16.5904 27.8402 17.1004 28.1002 17.3604L29.6202 18.8804C30.2402 19.5004 30.2402 20.5204 29.6202 21.1404L28.1002 22.6604C27.8402 22.9204 27.6302 23.4304 27.6302 23.7904V25.9403C27.6302 26.8203 26.9102 27.5404 26.0302 27.5404H23.8802C23.5202 27.5404 23.0102 27.7504 22.7502 28.0104L21.2302 29.5304C20.6102 30.1504 19.5902 30.1504 18.9702 29.5304L17.4502 28.0104C17.1902 27.7504 16.6802 27.5404 16.3202 27.5404H14.1702C13.2902 27.5404 12.5702 26.8203 12.5702 25.9403V23.7904C12.5702 23.4204 12.3602 22.9104 12.1002 22.6604Z" stroke="#F92323" stroke-width="1.5" stroke-linecap="round" stroke-linejoin="round"/>
<path d="M17.1113 23L23.1113 17" stroke="#F92323" stroke-width="1.5" stroke-linecap="round" stroke-linejoin="round"/>
<path d="M22.6058 22.5H22.6148" stroke="#F92323" stroke-width="2" stroke-linecap="round" stroke-linejoin="round"/>
<path d="M17.6058 17.5H17.6148" stroke="#F92323" stroke-width="2" stroke-linecap="round" stroke-linejoin="round"/>
</svg>
