<svg width="41" height="40" viewBox="0 0 41 40" fill="none" xmlns="http://www.w3.org/2000/svg">
<rect x="0.777344" width="40" height="40" rx="20" fill="#F5F2ED"/>
<g clip-path="url(#clip0_154_13657)">
<path d="M21.7144 24.4824L19.1363 25.4199L16.5583 24.4824L13.9803 25.4199L12.3398 24.8233V26.093H25.9336V24.8233L24.2927 25.4199L21.7144 24.4824Z" fill="#F92323"/>
<path d="M25.9336 22.4795L24.2927 23.0762L21.7144 22.1387L19.1363 23.0762L16.5583 22.1387L13.9803 23.0762L12.3398 22.4796V23.8258L13.9803 24.4223L16.5583 23.4848L19.1363 24.4223L21.7144 23.4848L24.2927 24.4223L25.9336 23.8257V22.4795Z" fill="#F92323"/>
<path d="M25.9336 20.4688H12.3398V21.4828L13.9803 22.0793L16.5583 21.1418L19.1363 22.0793L21.7144 21.1418L24.2927 22.0793L25.9336 21.4827V20.4688Z" fill="#F92323"/>
<path d="M32.0273 27.0312H9.52734V27.9688H11.4023V28.4375C11.4023 29.9908 12.6615 31.25 14.2148 31.25H27.3398C28.8931 31.25 30.1523 29.9908 30.1523 28.4375V27.9688H32.0273V27.0312ZM16.5586 13.3906C16.5586 12.8728 16.1389 12.4531 15.6211 12.4531C15.1033 12.4531 14.6836 12.8728 14.6836 13.3906V16.25H16.5586V13.3906ZM15.6211 11.5625C16.1389 11.5625 16.5586 11.1428 16.5586 10.625C16.5586 10.1072 15.6211 8.75 15.6211 8.75C15.6211 8.75 14.6836 10.1072 14.6836 10.625C14.6836 11.1428 15.1033 11.5625 15.6211 11.5625ZM21.2461 13.3906C21.2461 12.8728 20.8264 12.4531 20.3086 12.4531C19.7908 12.4531 19.3711 12.8728 19.3711 13.3906V16.25H21.2461V13.3906ZM20.3086 11.5625C20.8264 11.5625 21.2461 11.1428 21.2461 10.625C21.2461 10.1072 20.3086 8.75 20.3086 8.75C20.3086 8.75 19.3711 10.1072 19.3711 10.625C19.3711 11.1428 19.7908 11.5625 20.3086 11.5625ZM25.9336 13.3906C25.9336 12.8728 25.5139 12.4531 24.9961 12.4531C24.4783 12.4531 24.0586 12.8728 24.0586 13.3906V16.25H25.9336V13.3906ZM24.9961 11.5625C25.5139 11.5625 25.9336 11.1428 25.9336 10.625C25.9336 10.1072 24.9961 8.75 24.9961 8.75C24.9961 8.75 24.0586 10.1072 24.0586 10.625C24.0586 11.1428 24.4783 11.5625 24.9961 11.5625Z" fill="#F92323"/>
<path d="M26.8711 26.0938H29.2148V17.1875H11.4023V19.5312H26.8711V26.0938Z" fill="#F92323"/>
</g>
<defs>
<clipPath id="clip0_154_13657">
<rect width="24" height="24" fill="white" transform="translate(8.77734 8)"/>
</clipPath>
</defs>
</svg>
