<svg width="18" height="17" viewBox="0 0 18 17" fill="none" xmlns="http://www.w3.org/2000/svg">
<path d="M10.4142 8.50008L16.707 2.20708C16.8025 2.11483 16.8787 2.00449 16.9311 1.88249C16.9835 1.76048 17.0111 1.62926 17.0122 1.49648C17.0134 1.3637 16.9881 1.23202 16.9378 1.10913C16.8875 0.986231 16.8133 0.874579 16.7194 0.780686C16.6255 0.686793 16.5138 0.61254 16.3909 0.562259C16.268 0.511978 16.1364 0.486677 16.0036 0.487831C15.8708 0.488985 15.7396 0.516571 15.6176 0.56898C15.4956 0.621389 15.3852 0.697571 15.293 0.793081L8.99998 7.08583L2.70722 0.793081C2.519 0.608994 2.26578 0.50656 2.0025 0.50801C1.73923 0.50946 1.48715 0.614676 1.30097 0.800826C1.11479 0.986975 1.00953 1.23904 1.00803 1.50231C1.00653 1.76558 1.10892 2.01883 1.29298 2.20708L7.58598 8.50008L1.29298 14.7931C1.19842 14.8856 1.12315 14.9959 1.07152 15.1176C1.01989 15.2394 0.992931 15.3702 0.992203 15.5025C0.991474 15.6347 1.01699 15.7658 1.06727 15.8882C1.11756 16.0105 1.19161 16.1216 1.28514 16.2152C1.37868 16.3087 1.48983 16.3827 1.61217 16.433C1.73451 16.4832 1.86561 16.5087 1.99787 16.508C2.13013 16.5072 2.26093 16.4802 2.38269 16.4286C2.50445 16.3769 2.61476 16.3017 2.70722 16.2071L8.99998 9.91433L15.293 16.2071C15.4882 16.4023 15.7442 16.5001 16 16.5001C16.2557 16.5001 16.512 16.4023 16.707 16.2071C16.8944 16.0196 16.9998 15.7652 16.9998 15.5001C16.9998 15.2349 16.8944 14.9806 16.707 14.7931L10.4142 8.50008Z" fill="#333333"/>
</svg>
