<svg width="41" height="40" viewBox="0 0 41 40" fill="none" xmlns="http://www.w3.org/2000/svg">
<rect x="0.666016" width="40" height="40" rx="20" fill="#F5F2ED"/>
<path d="M24.9785 22.8125C24.5335 22.8125 24.0985 22.9445 23.7285 23.1917C23.3585 23.4389 23.0701 23.7903 22.8998 24.2015C22.7295 24.6126 22.6849 25.065 22.7717 25.5015C22.8586 25.9379 23.0729 26.3388 23.3875 26.6535C23.7022 26.9682 24.1031 27.1825 24.5396 27.2693C24.976 27.3561 25.4284 27.3115 25.8396 27.1412C26.2507 26.9709 26.6021 26.6825 26.8493 26.3125C27.0966 25.9425 27.2285 25.5075 27.2285 25.0625C27.2278 24.466 26.9906 23.8941 26.5688 23.4722C26.147 23.0504 25.575 22.8132 24.9785 22.8125ZM14.8535 22.8125C14.4085 22.8125 13.9735 22.9445 13.6035 23.1917C13.2335 23.4389 12.9451 23.7903 12.7748 24.2015C12.6045 24.6126 12.5599 25.065 12.6467 25.5015C12.7336 25.9379 12.9479 26.3388 13.2625 26.6535C13.5772 26.9682 13.9781 27.1825 14.4146 27.2693C14.851 27.3561 15.3034 27.3115 15.7146 27.1412C16.1257 26.9709 16.4771 26.6825 16.7243 26.3125C16.9716 25.9425 17.1035 25.5075 17.1035 25.0625C17.1028 24.466 16.8656 23.8941 16.4438 23.4722C16.022 23.0504 15.45 22.8132 14.8535 22.8125V22.8125ZM9.79102 17.375H10.363C10.3974 16.664 10.624 15.9757 11.0185 15.3832C11.413 14.7907 11.9608 14.3163 12.6035 14.0103V14H9.79102C9.76639 14 9.74201 14.0048 9.71925 14.0143C9.6965 14.0237 9.67583 14.0375 9.65842 14.0549C9.64101 14.0723 9.6272 14.093 9.61778 14.1157C9.60835 14.1385 9.60351 14.1629 9.60352 14.1875V17.4096C9.66356 17.3873 9.72699 17.3756 9.79102 17.375V17.375Z" fill="#F92323"/>
<path d="M18.791 17.75H17.8535V17.5625C17.8545 17.0944 17.7629 16.6308 17.5838 16.1983C17.4047 15.7658 17.1418 15.373 16.8102 15.0427C16.4592 14.6939 16.0401 14.4213 15.5791 14.2417C15.5948 14.1621 15.603 14.0812 15.6035 14C15.6035 13.6519 15.4652 13.3181 15.2191 13.0719C14.973 12.8258 14.6391 12.6875 14.291 12.6875C13.9429 12.6875 13.6091 12.8258 13.3629 13.0719C13.1168 13.3181 12.9785 13.6519 12.9785 14C12.9791 14.0819 12.9875 14.1635 13.0035 14.2437C12.3334 14.5024 11.7574 14.9579 11.3513 15.5503C10.9452 16.1427 10.7281 16.8443 10.7285 17.5625V17.75H9.79102C9.74129 17.75 9.6936 17.7698 9.65843 17.8049C9.62327 17.8401 9.60352 17.8878 9.60352 17.9375C9.60352 17.9872 9.62327 18.0349 9.65843 18.0701C9.6936 18.1052 9.74129 18.125 9.79102 18.125H18.791C18.8407 18.125 18.8884 18.1052 18.9236 18.0701C18.9588 18.0349 18.9785 17.9872 18.9785 17.9375C18.9785 17.8878 18.9588 17.8401 18.9236 17.8049C18.8884 17.7698 18.8407 17.75 18.791 17.75ZM14.291 13.0625C14.4245 13.0625 14.5564 13.0911 14.678 13.1462C14.7996 13.2013 14.908 13.2817 14.996 13.3821C15.084 13.4825 15.1495 13.6005 15.1882 13.7282C15.2269 13.856 15.2379 13.9905 15.2205 14.1229C15.2169 14.1224 15.2134 14.1223 15.2099 14.1225C14.6077 13.9632 13.9744 13.9632 13.3722 14.1225C13.3686 14.1223 13.3651 14.1224 13.3616 14.1229C13.3441 13.9905 13.3551 13.856 13.3938 13.7282C13.4325 13.6005 13.4981 13.4825 13.5861 13.3821C13.674 13.2817 13.7824 13.2013 13.904 13.1462C14.0256 13.0911 14.1575 13.0625 14.291 13.0625Z" fill="#F92323"/>
<path d="M31.6132 20.952L29.4353 20.0445L27.0273 14.1169C27.0132 14.0824 26.9892 14.0528 26.9582 14.0319C26.9273 14.0111 26.8908 14 26.8535 14H15.9785V14.0103C16.6212 14.3163 17.169 14.7907 17.5635 15.3832C17.9581 15.9757 18.1846 16.664 18.219 17.375H18.791C18.9402 17.375 19.0833 17.4343 19.1888 17.5398C19.2943 17.6452 19.3535 17.7883 19.3535 17.9375C19.3535 18.0867 19.2943 18.2298 19.1888 18.3352C19.0833 18.4407 18.9402 18.5 18.791 18.5H9.79102C9.72699 18.4994 9.66356 18.4877 9.60352 18.4654V25.0625C9.60351 25.0871 9.60835 25.1115 9.61778 25.1343C9.6272 25.157 9.64101 25.1777 9.65842 25.1951C9.67583 25.2125 9.6965 25.2263 9.71925 25.2357C9.74201 25.2452 9.76639 25.25 9.79102 25.25H12.238C12.2336 25.1878 12.2285 25.1258 12.2285 25.0625C12.2285 24.3663 12.5051 23.6986 12.9974 23.2063C13.4896 22.7141 14.1573 22.4375 14.8535 22.4375C15.5497 22.4375 16.2174 22.7141 16.7097 23.2063C17.202 23.6986 17.4785 24.3663 17.4785 25.0625C17.4785 25.1258 17.4735 25.1878 17.469 25.25H22.363C22.3586 25.1878 22.3535 25.1258 22.3535 25.0625C22.3535 24.3663 22.6301 23.6986 23.1224 23.2063C23.6146 22.7141 24.2823 22.4375 24.9785 22.4375C25.6747 22.4375 26.3424 22.7141 26.8347 23.2063C27.327 23.6986 27.6035 24.3663 27.6035 25.0625C27.6035 25.1258 27.5985 25.1878 27.594 25.25H31.541C31.5656 25.25 31.59 25.2452 31.6128 25.2357C31.6355 25.2263 31.6562 25.2125 31.6736 25.1951C31.691 25.1777 31.7048 25.157 31.7143 25.1343C31.7237 25.1115 31.7285 25.0871 31.7285 25.0625V21.125C31.7285 21.088 31.7175 21.0518 31.697 21.021C31.6765 20.9902 31.6473 20.9662 31.6132 20.952V20.952ZM10.166 20C10.1163 20 10.0686 19.9802 10.0334 19.9451C9.99827 19.9099 9.97852 19.8622 9.97852 19.8125C9.97852 19.7628 9.99827 19.7151 10.0334 19.6799C10.0686 19.6448 10.1163 19.625 10.166 19.625H19.916C19.9657 19.625 20.0134 19.6448 20.0486 19.6799C20.0838 19.7151 20.1035 19.7628 20.1035 19.8125C20.1035 19.8622 20.0838 19.9099 20.0486 19.9451C20.0134 19.9802 19.9657 20 19.916 20H10.166ZM22.916 21.5H12.791C12.7413 21.5 12.6936 21.4802 12.6584 21.4451C12.6233 21.4099 12.6035 21.3622 12.6035 21.3125C12.6035 21.2628 12.6233 21.2151 12.6584 21.1799C12.6936 21.1448 12.7413 21.125 12.791 21.125H22.916C22.9657 21.125 23.0134 21.1448 23.0486 21.1799C23.0838 21.2151 23.1035 21.2628 23.1035 21.3125C23.1035 21.3622 23.0838 21.4099 23.0486 21.4451C23.0134 21.4802 22.9657 21.5 22.916 21.5ZM28.5101 19.9157C28.493 19.9416 28.4697 19.9628 28.4424 19.9776C28.4151 19.9923 28.3845 20 28.3535 20H23.4785C23.4539 20 23.4295 19.9952 23.4068 19.9857C23.384 19.9763 23.3633 19.9625 23.3459 19.9451C23.3285 19.9277 23.3147 19.907 23.3053 19.8843C23.2959 19.8615 23.291 19.8371 23.291 19.8125V15.875C23.291 15.8504 23.2959 15.826 23.3053 15.8032C23.3147 15.7805 23.3285 15.7598 23.3459 15.7424C23.3633 15.725 23.384 15.7112 23.4068 15.7018C23.4295 15.6923 23.4539 15.6875 23.4785 15.6875H26.8535C26.8902 15.6875 26.9261 15.6982 26.9567 15.7184C26.9874 15.7386 27.0114 15.7674 27.0258 15.8011L28.5258 19.7386C28.538 19.7671 28.543 19.7982 28.5403 19.8291C28.5375 19.86 28.5271 19.8898 28.5101 19.9157V19.9157ZM31.166 23.75C31.166 23.7746 31.1612 23.799 31.1518 23.8218C31.1423 23.8445 31.1285 23.8652 31.1111 23.8826C31.0937 23.9 31.073 23.9138 31.0503 23.9232C31.0275 23.9327 31.0031 23.9375 30.9785 23.9375H28.7285C28.7039 23.9375 28.6795 23.9327 28.6568 23.9232C28.634 23.9138 28.6133 23.9 28.5959 23.8826C28.5785 23.8652 28.5647 23.8445 28.5553 23.8218C28.5459 23.799 28.541 23.7746 28.541 23.75V22.25C28.541 22.2254 28.5459 22.201 28.5553 22.1782C28.5647 22.1555 28.5785 22.1348 28.5959 22.1174C28.6133 22.1 28.634 22.0862 28.6568 22.0768C28.6795 22.0673 28.7039 22.0625 28.7285 22.0625H30.9785C31.0031 22.0625 31.0275 22.0673 31.0503 22.0768C31.073 22.0862 31.0937 22.1 31.1111 22.1174C31.1285 22.1348 31.1423 22.1555 31.1518 22.1782C31.1612 22.201 31.166 22.2254 31.166 22.25V23.75Z" fill="#F92323"/>
</svg>
