<svg width="41" height="41" viewBox="0 0 41 41" fill="none" xmlns="http://www.w3.org/2000/svg">
<g clip-path="url(#clip0_1_17679)">
<path d="M20.291 40.5C31.3367 40.5 40.291 31.5457 40.291 20.5C40.291 9.4543 31.3367 0.5 20.291 0.5C9.24532 0.5 0.291016 9.4543 0.291016 20.5C0.291016 31.5457 9.24532 40.5 20.291 40.5Z" fill="#F6F6F6"/>
<path d="M20.2912 0.5C11.6919 0.5 4.36102 5.9275 1.53516 13.5435H39.0473C36.2213 5.9275 28.8905 0.5 20.2912 0.5Z" fill="#D80027"/>
<path d="M20.2912 40.4996C28.8905 40.4996 36.2213 35.0721 39.0472 27.4561H1.53516C4.36102 35.0721 11.6919 40.4996 20.2912 40.4996Z" fill="black"/>
<path d="M27.2471 18.3261H22.0297C22.0297 17.3656 21.251 16.5869 20.2905 16.5869C19.3301 16.5869 18.5514 17.3656 18.5514 18.3261H13.334C13.334 19.2866 14.1706 20.0652 15.1311 20.0652H15.0731C15.0731 21.0257 15.8517 21.8043 16.8123 21.8043C16.8123 22.7649 17.5909 23.5435 18.5514 23.5435H22.0297C22.9902 23.5435 23.7688 22.7649 23.7688 21.8043C24.7294 21.8043 25.508 21.0257 25.508 20.0652H25.4501C26.4105 20.0652 27.2471 19.2866 27.2471 18.3261Z" fill="#FF9811"/>
</g>
<defs>
<clipPath id="clip0_1_17679">
<rect width="40" height="40" fill="white" transform="translate(0.291016 0.5)"/>
</clipPath>
</defs>
</svg>
