<svg width="22" height="22" viewBox="0 0 22 22" fill="none" xmlns="http://www.w3.org/2000/svg">
<path d="M17.4291 0.713867C18.4916 0.713867 19.4001 1.0911 20.1546 1.84556C20.909 2.60003 21.2863 3.50851 21.2863 4.57101V17.4282C21.2863 18.4907 20.909 19.3991 20.1546 20.1536C19.4001 20.9081 18.4916 21.2853 17.4291 21.2853H14.9113V13.3165H17.5765L17.9782 10.2094H14.9113V8.22726C14.9113 7.72726 15.0162 7.35226 15.226 7.10226C15.4358 6.85226 15.8443 6.72726 16.4515 6.72726L18.0854 6.71387V3.94155C17.5229 3.86119 16.7282 3.82101 15.7015 3.82101C14.4872 3.82101 13.5162 4.17815 12.7885 4.89244C12.0608 5.60672 11.697 6.61565 11.697 7.91922V10.2094H9.01842V13.3165H11.697V21.2853H4.57199C3.50949 21.2853 2.601 20.9081 1.84654 20.1536C1.09208 19.3991 0.714844 18.4907 0.714844 17.4282V4.57101C0.714844 3.50851 1.09208 2.60003 1.84654 1.84556C2.601 1.0911 3.50949 0.713867 4.57199 0.713867H17.4291Z" fill="white"/>
</svg>
