<svg width="40" height="40" viewBox="0 0 40 40" fill="none" xmlns="http://www.w3.org/2000/svg">
<rect width="40" height="40" rx="20" fill="#F5F2ED"/>
<path d="M27.4013 14.4992H28.8013C29.4013 14.6992 29.8013 14.9992 30.2013 15.4992C30.2013 15.5992 30.2013 15.5992 30.3013 15.5992C30.6013 16.0992 30.6013 16.4992 30.4013 16.9992C30.1013 17.6992 29.5013 18.2992 28.7013 18.6992L22.5013 19.3992C22.4013 19.0992 22.3013 18.7992 22.1013 18.5992L26.7013 14.6992L27.4013 14.4992ZM18.6013 21.2992C18.3013 20.9992 18.1013 20.5992 18.1013 20.1992C18.1013 19.7992 18.3013 19.3992 18.6013 19.0992C18.9013 18.7992 19.3013 18.6992 19.8013 18.6992C20.2013 18.6992 20.7013 18.8992 20.9013 19.0992C21.3013 19.3992 21.4013 19.7992 21.4013 20.1992C21.4013 20.4992 21.3013 20.9992 20.9013 21.2992C20.2013 21.9992 19.2013 21.8992 18.6013 21.2992ZM21.4013 9.59922C22.2013 9.19922 23.0013 9.09922 23.9013 9.29922C24.8013 9.49922 25.4013 9.89922 25.8013 10.5992L25.9013 10.7992C26.4013 11.5992 26.5013 12.3992 26.2013 13.2992L25.9013 13.9992L21.2013 17.9992C20.8013 17.7992 20.3013 17.5992 19.8013 17.5992V11.3992C20.1013 10.5992 20.6013 9.99922 21.4013 9.59922ZM14.2013 11.5992C14.3013 10.7992 14.7013 10.2992 15.2013 9.99922C15.7013 9.69922 16.2013 9.69922 16.8013 9.79922C17.4013 9.99922 18.0013 10.3992 18.4013 10.9992L18.8013 11.6992V17.6992H18.7013L14.7013 14.0992L14.6013 13.8992C14.2013 13.0992 14.1013 12.3992 14.2013 11.5992ZM10.1013 19.6992C9.80134 19.4992 9.60134 19.2992 9.50134 18.9992C9.10134 18.2992 9.10134 17.5992 9.40134 16.8992C9.70134 15.9992 10.3013 15.4992 11.1013 15.0992C11.9013 14.6992 12.8013 14.5992 13.5013 14.6992L14.2013 14.8992L17.9013 18.2992C17.5013 18.7992 17.2013 19.2992 17.2013 19.7992L11.6013 20.2992L11.4013 20.1992C10.8013 20.1992 10.4013 19.9992 10.1013 19.6992ZM12.0013 24.8992C11.7013 24.8992 11.5013 24.7992 11.2013 24.5992C11.0013 24.3992 10.9013 24.2992 10.8013 23.9992C10.6013 23.5992 10.5013 23.1992 10.6013 22.6992C10.8013 22.1992 11.0013 21.8992 11.3013 21.5992L11.7013 21.2992L17.2013 20.7992C17.3013 21.1992 17.5013 21.5992 17.8013 21.8992L14.0013 24.7992C13.3013 24.9992 12.8013 24.9992 12.0013 24.8992ZM18.6013 30.4992C17.8013 30.8992 17.0013 30.8992 16.0013 30.6992C15.4013 30.4992 15.0013 30.3992 14.8013 30.0992C14.5013 29.7992 14.3013 29.4992 14.1013 29.1992C13.7013 28.3992 13.6013 27.5992 13.9013 26.7992L14.0013 26.4992L14.5013 25.5992L18.7013 22.5992C18.9013 22.6992 19.2013 22.7992 19.5013 22.7992L20.1013 28.5992C19.8013 29.3992 19.3013 30.0992 18.6013 30.4992ZM25.0013 27.8992C24.8013 28.4992 24.5013 28.8992 24.1013 29.1992C23.7013 29.4992 23.2013 29.4992 22.6013 29.3992C22.1013 29.2992 21.6013 28.8992 21.1013 28.2992L20.5013 22.6992C20.8013 22.5992 21.0013 22.4992 21.3013 22.2992L25.0013 25.9992C25.2013 26.6992 25.2013 27.2992 25.0013 27.8992ZM30.7013 23.6992C30.4013 24.5992 29.9013 25.1992 29.2013 25.5992C28.8013 25.7992 28.3013 25.8992 27.8013 25.8992C27.4013 25.8992 27.1013 25.7992 26.6013 25.6992C26.4013 25.5992 26.1013 25.4992 25.9013 25.3992L21.9013 21.4992C22.1013 21.1992 22.3013 20.7992 22.3013 20.3992L28.6013 19.6992C28.9013 19.7992 29.2013 19.9992 29.4013 20.0992C29.7013 20.2992 29.9013 20.5992 30.2013 20.9992L30.3013 21.1992C30.9013 22.0992 30.9013 22.8992 30.7013 23.6992Z" fill="#F92323"/>
</svg>
