<svg width="41" height="40" viewBox="0 0 41 40" fill="none" xmlns="http://www.w3.org/2000/svg">
<rect x="0.333984" width="40" height="40" rx="20" fill="#F5F2ED"/>
<path d="M12.974 23.27V28.09C12.9766 28.3323 13.0747 28.5637 13.247 28.7341C13.4192 28.9045 13.6517 29 13.894 29H19.514V23.27H12.974ZM21.154 29H26.774C27.0163 29 27.2488 28.9045 27.421 28.7341C27.5933 28.5637 27.6914 28.3323 27.694 28.09V23.27H21.154V29ZM28.434 15.09H26.594C26.7825 14.7072 26.8816 14.2867 26.884 13.86C26.8813 13.1006 26.5778 12.3731 26.0399 11.8371C25.5019 11.301 24.7734 11 24.014 11C23.2206 11.0376 22.4541 11.2989 21.8029 11.7537C21.1517 12.2084 20.6425 12.8381 20.334 13.57C20.0255 12.8381 19.5162 12.2084 18.8651 11.7537C18.2139 11.2989 17.4473 11.0376 16.654 11C15.8945 11 15.1661 11.301 14.6281 11.8371C14.0902 12.3731 13.7866 13.1006 13.784 13.86C13.7864 14.2867 13.8855 14.7072 14.074 15.09H12.234C11.734 15.09 11.334 15.68 11.334 16.4V20.33C11.334 21.05 11.734 21.64 12.234 21.64H19.514V15.09H21.154V21.64H28.434C28.934 21.64 29.334 21.05 29.334 20.33V16.4C29.334 15.68 28.934 15.09 28.434 15.09ZM16.654 15.09C16.4838 15.1054 16.3123 15.0852 16.1504 15.0306C15.9885 14.976 15.8397 14.8883 15.7135 14.7731C15.5874 14.6578 15.4867 14.5175 15.4177 14.3612C15.3488 14.2049 15.3132 14.0359 15.3132 13.865C15.3132 13.6941 15.3488 13.5251 15.4177 13.3688C15.4867 13.2125 15.5874 13.0722 15.7135 12.9569C15.8397 12.8417 15.9885 12.754 16.1504 12.6994C16.3123 12.6448 16.4838 12.6246 16.654 12.64C18.054 12.64 18.844 14.08 19.234 15.09H16.654ZM24.014 15.09H21.434C21.824 14.09 22.614 12.64 24.014 12.64C24.1842 12.6246 24.3557 12.6448 24.5176 12.6994C24.6795 12.754 24.8283 12.8417 24.9544 12.9569C25.0806 13.0722 25.1813 13.2125 25.2502 13.3688C25.3192 13.5251 25.3548 13.6941 25.3548 13.865C25.3548 14.0359 25.3192 14.2049 25.2502 14.3612C25.1813 14.5175 25.0806 14.6578 24.9544 14.7731C24.8283 14.8883 24.6795 14.976 24.5176 15.0306C24.3557 15.0852 24.1842 15.1054 24.014 15.09Z" fill="#F92323"/>
</svg>
