<svg width="21" height="22" viewBox="0 0 21 22" fill="none" xmlns="http://www.w3.org/2000/svg">
<path d="M11.0006 9.52637H20.7104C20.8175 10.1246 20.8711 10.696 20.8711 11.2407C20.8711 13.1782 20.4648 14.9081 19.6523 16.4304C18.8398 17.9527 17.6814 19.1424 16.1769 19.9996C14.6724 20.8567 12.947 21.2853 11.0006 21.2853C9.59877 21.2853 8.26395 21.0152 6.99609 20.475C5.72824 19.9348 4.63449 19.2049 3.71484 18.2853C2.7952 17.3657 2.06529 16.2719 1.52511 15.004C0.984933 13.7362 0.714844 12.4014 0.714844 10.9996C0.714844 9.5978 0.984933 8.26297 1.52511 6.99512C2.06529 5.72726 2.7952 4.63351 3.71484 3.71387C4.63449 2.79422 5.72824 2.06431 6.99609 1.52414C8.26395 0.983956 9.59877 0.713867 11.0006 0.713867C13.6791 0.713867 15.9782 1.61119 17.8979 3.40583L15.0988 6.0978C14.0006 5.0353 12.6345 4.50405 11.0006 4.50405C9.84877 4.50405 8.78404 4.79422 7.80636 5.37458C6.82868 5.95494 6.05413 6.74289 5.4827 7.73842C4.91127 8.73396 4.62556 9.82101 4.62556 10.9996C4.62556 12.1782 4.91127 13.2652 5.4827 14.2607C6.05413 15.2563 6.82868 16.0442 7.80636 16.6246C8.78404 17.2049 9.84877 17.4951 11.0006 17.4951C11.7773 17.4951 12.4916 17.388 13.1434 17.1737C13.7952 16.9594 14.3309 16.6915 14.7506 16.3701C15.1702 16.0487 15.5363 15.6826 15.8488 15.2719C16.1613 14.8612 16.3912 14.4728 16.5385 14.1067C16.6858 13.7407 16.7863 13.3924 16.8398 13.0621H11.0006V9.52637Z" fill="white"/>
</svg>
