<svg width="41" height="41" viewBox="0 0 41 41" fill="none" xmlns="http://www.w3.org/2000/svg">
<g clip-path="url(#clip0_1_17685)">
<path d="M20.125 40.5C31.1707 40.5 40.125 31.5457 40.125 20.5C40.125 9.4543 31.1707 0.5 20.125 0.5C9.0793 0.5 0.125 9.4543 0.125 20.5C0.125 31.5457 9.0793 40.5 20.125 40.5Z" fill="#F6F6F6"/>
<path d="M12.2998 13.5435H38.8818C36.056 5.9275 28.7251 0.5 20.1259 0.5C14.6029 0.5 9.60344 2.73898 5.98438 6.35852L12.2998 13.5435Z" fill="black"/>
<path d="M12.2998 27.4561H38.8818C36.056 35.0721 28.7251 40.4996 20.1259 40.4996C14.6029 40.4996 9.60344 38.2606 5.98438 34.6411L12.2998 27.4561Z" fill="#6DA544"/>
<path d="M5.98285 6.35742C-1.82762 14.1679 -1.82762 26.8312 5.98285 34.6418C9.21043 31.4142 12.3146 28.3101 20.125 20.4996L5.98285 6.35742Z" fill="#D80027"/>
<path d="M8.06313 16.1523L9.1607 18.4476L11.6395 17.8747L10.5294 20.1638L12.5227 21.7446L10.0409 22.3039L10.0478 24.848L8.06313 23.2563L6.07836 24.848L6.08531 22.3039L3.60352 21.7446L5.5968 20.1638L4.4868 17.8747L6.96547 18.4476L8.06313 16.1523Z" fill="#F6F6F6"/>
</g>
<defs>
<clipPath id="clip0_1_17685">
<rect width="40" height="40" fill="white" transform="translate(0.125 0.5)"/>
</clipPath>
</defs>
</svg>
