<svg width="188" height="56" viewBox="0 0 188 56" fill="none" xmlns="http://www.w3.org/2000/svg">
<g clip-path="url(#clip0_113_15013)">
<path d="M15.7076 56.0009C12.9148 56.0009 10.5529 55.2787 8.96096 53.5911H8.72157C8.76945 53.8783 8.81733 54.3132 8.81733 54.7481V55.2309H0V19.0918H9.53947V29.4013C9.53947 30.7977 9.49159 31.0411 9.44372 31.0889H9.6831C10.9359 29.8362 13.0066 29.2577 15.56 29.2577C22.2588 29.2577 27.3656 34.5082 27.3656 42.5555C27.3656 50.6028 22.4981 55.9969 15.7076 55.9969V56.0009ZM17.7304 42.5116C17.7304 39.4275 16.0427 37.5962 13.4893 37.5962C10.9359 37.5962 9.20034 39.4275 9.20034 42.5116C9.20034 45.5956 11.0316 47.5706 13.4893 47.5706C15.947 47.5706 17.7304 45.5956 17.7304 42.5116Z" fill="#F92323"/>
<path d="M38.4523 29.2578C41.2451 29.2578 43.3676 29.9321 44.8119 31.4242H45.0034C44.9556 31.2806 44.9077 31.0372 44.9077 30.75V30.0278H53.725V55.227H44.9077V54.5049C44.9077 54.1658 44.9556 53.7828 45.0034 53.5912H44.8119C43.1721 55.231 40.8621 56.001 38.0174 56.001C31.2707 56.001 26.3594 50.6548 26.3594 42.6554C26.3594 34.6559 31.562 29.2618 38.4523 29.2618V29.2578ZM44.5725 42.5077C44.5725 39.4715 42.7891 37.5924 40.2836 37.5924C37.778 37.5924 36.0425 39.4715 36.0425 42.5077C36.0425 45.5439 37.778 47.5667 40.2836 47.5667C42.7891 47.5667 44.5725 45.5918 44.5725 42.5077Z" fill="#F92323"/>
<path d="M82.7479 46.9402C82.5364 46.9881 82.329 46.9881 82.0617 46.9881C80.6652 46.9881 79.604 46.6011 79.604 44.7738V19.0918H69.9688V45.6874C69.9688 45.9986 69.9767 46.3018 69.9967 46.5971C70.1403 49.4617 71.0021 51.6082 72.5421 53.0804C74.3295 51.5723 75.6661 49.7769 76.4042 48.6558L73.8787 54.0938C75.5384 55.0912 77.7128 55.574 80.374 55.574C81.531 55.574 82.4447 55.4304 82.9274 55.2388V46.8963C82.8636 46.9083 82.8037 46.9322 82.7479 46.9442V46.9402Z" fill="#F92323"/>
<path d="M97.9211 29.2578C89.9256 29.2578 84.2402 34.7517 84.2402 42.6514C84.2402 43.9321 84.3918 45.1489 84.6791 46.294C85.2297 48.4844 86.283 50.3955 87.7432 51.9235C89.2513 50.3835 90.2967 48.7996 90.7595 48.0335L89.3072 53.312C91.6053 55.0315 94.5577 56.001 97.925 56.001C105.92 56.001 111.606 50.5112 111.606 42.6514C111.606 34.7916 105.92 29.2578 97.925 29.2578H97.9211ZM97.9211 47.5667C95.3676 47.5667 93.8755 45.5918 93.8755 42.5077C93.8755 39.4237 95.3676 37.5924 97.9211 37.5924C100.474 37.5924 101.967 39.4715 101.967 42.5077C101.967 45.5439 100.474 47.5667 97.9211 47.5667Z" fill="#F92323"/>
<path d="M111.223 42.6553C111.223 34.7516 116.908 29.2617 124.907 29.2617C132.907 29.2617 138.592 34.7556 138.592 42.6553C138.592 50.555 132.907 56.001 124.907 56.001C116.908 56.001 111.223 50.5071 111.223 42.6553ZM128.953 42.5117C128.953 39.4755 127.461 37.5963 124.907 37.5963C122.354 37.5963 120.862 39.4755 120.862 42.5117C120.862 45.5478 122.354 48.6439 124.907 48.6439C127.461 48.6439 128.953 45.5957 128.953 42.5117Z" fill="#F92323"/>
<path d="M149.652 29.2578C156.447 29.2578 161.506 33.3034 161.506 39.5673V55.227H151.87V39.8586C151.87 38.5579 150.957 37.5924 149.704 37.5924C148.451 37.5924 147.538 38.5579 147.538 39.8586V55.227H137.902V39.28C137.902 33.2077 142.913 29.2578 149.66 29.2578H149.652Z" fill="#F92323"/>
<path d="M91.0346 47.5671C91.0346 47.5671 90.9389 47.7386 90.7593 48.0339C90.2965 48.7959 89.2512 50.3798 87.7431 51.9239C86.4504 53.2445 84.8186 54.5331 82.9275 55.2353C82.9275 55.2353 80.0149 47.8982 82.7479 46.9407C82.8038 46.9287 82.8636 46.9048 82.9275 46.8928C83.5898 46.7492 84.1643 46.5337 84.6829 46.2943C86.5422 45.4286 87.4638 44.1758 87.4638 44.1758L91.0346 47.5671Z" fill="#F92323"/>
<path d="M68.7832 46.9402C68.5718 46.9881 68.3643 46.9881 68.097 46.9881C66.7006 46.9881 65.6393 46.6011 65.6393 44.7738V19.0918H55.9961V45.6874C55.9961 52.438 59.6108 55.57 66.4013 55.57C67.5663 55.57 68.48 55.4264 68.9628 55.2349V46.8923C68.8989 46.9043 68.8391 46.9282 68.7832 46.9402Z" fill="#F92323"/>
<path d="M77.0698 47.5671C77.0698 47.5671 76.8344 47.994 76.4035 48.6563C75.6654 49.7774 74.3328 51.5728 72.5414 53.0809C71.4961 53.9626 70.2992 54.7406 68.9626 55.2353C68.9626 55.2353 66.0501 47.8982 68.7831 46.9407C68.8389 46.9287 68.8988 46.9048 68.9626 46.8928C69.3257 46.809 69.6728 46.7053 69.996 46.5976C72.3339 45.7517 73.491 44.1758 73.491 44.1758L77.0698 47.5671Z" fill="#F92323"/>
<path d="M168.487 33.6496L175.082 37.775C178.409 39.8576 182.738 39.331 185.471 36.5142L185.559 36.4224C188.758 33.1229 188.679 27.8525 185.379 24.6527C182.522 21.8798 178.098 21.5208 174.83 23.7949L168.355 28.2993C166.468 29.6119 166.536 32.4287 168.487 33.6496Z" fill="#F92323"/>
<path d="M154.04 22.3034L153.426 18.3695C153.118 16.3866 151.463 14.8865 149.46 14.7748H149.396C147.046 14.6391 145.035 16.4345 144.903 18.7805C144.788 20.8153 146.128 22.6465 148.103 23.1493L152.013 24.1467C153.154 24.4379 154.219 23.4684 154.04 22.3034Z" fill="#F92323"/>
<path d="M164.941 25.842L173.303 20.013C177.524 17.0726 179.116 11.5827 177.122 6.83889L177.058 6.68728C174.724 1.13356 168.332 -1.47972 162.774 0.854275C157.963 2.87707 155.258 8.01985 156.319 13.1307L158.422 23.2527C159.036 26.2051 162.463 27.5696 164.937 25.846L164.941 25.842Z" fill="#F92323"/>
</g>
<defs>
<clipPath id="clip0_113_15013">
<rect width="187.909" height="56" fill="white"/>
</clipPath>
</defs>
</svg>
