<svg width="41" height="40" viewBox="0 0 41 40" fill="none" xmlns="http://www.w3.org/2000/svg">
<rect x="0.443359" width="40" height="40" rx="20" fill="#F5F2ED"/>
<path d="M26.6364 20.4448V20.4407L26.4575 20.0282L25.292 17.3211V17.3169C25.2657 17.2084 25.212 17.1084 25.136 17.0267C25.1034 16.995 25.0653 16.9696 25.0235 16.9517C24.0886 16.3768 21.6072 18.5248 20.5486 19.5114L21.0601 20.0601C22.9947 18.2559 24.1947 17.6394 24.5697 17.5854C24.5697 17.5888 24.5697 17.5911 24.5697 17.5944C24.5675 17.6083 24.563 17.6252 24.5596 17.6406C24.5544 17.6642 24.5491 17.6878 24.5409 17.7156C24.5356 17.7339 24.5274 17.7531 24.5206 17.7741C24.5105 17.8026 24.5007 17.8311 24.4876 17.8626C24.4786 17.8851 24.4674 17.9094 24.4569 17.9331C24.4422 17.9661 24.4272 17.9994 24.4096 18.0351C24.3969 18.0613 24.3822 18.0894 24.368 18.1168C24.3489 18.1543 24.3305 18.1918 24.3076 18.2293C24.2907 18.2597 24.2727 18.2916 24.2544 18.3234C24.2311 18.3639 24.2071 18.4052 24.1794 18.4479C24.1587 18.4824 24.1366 18.5177 24.1141 18.5537C24.0871 18.5972 24.0586 18.6418 24.029 18.6872C24.0042 18.7247 23.978 18.7652 23.9514 18.8053C23.9206 18.8514 23.8884 18.8983 23.8554 18.9463C23.8224 18.9943 23.7957 19.0322 23.7642 19.0764C23.7327 19.1207 23.6941 19.1743 23.6574 19.2246C23.6206 19.2748 23.5891 19.3179 23.5531 19.3659C23.5171 19.4139 23.4759 19.4683 23.4357 19.5204C23.3956 19.5726 23.3607 19.6202 23.3191 19.6704C23.2775 19.7207 23.2332 19.7784 23.1894 19.8328C23.1455 19.8872 23.1046 19.9386 23.06 19.9929C23.0154 20.0473 22.9681 20.1036 22.9212 20.1594C22.8744 20.2153 22.8271 20.2719 22.778 20.3297C22.7289 20.3874 22.6771 20.4459 22.628 20.5041C22.5789 20.5622 22.5275 20.6199 22.475 20.6788C22.4225 20.7377 22.3625 20.8041 22.3044 20.8663C22.2462 20.9286 22.2009 20.9811 22.1465 21.0396C22.0794 21.1123 22.0085 21.1866 21.9384 21.2604C21.8907 21.3107 21.845 21.3602 21.7959 21.4104C21.6746 21.5354 21.5496 21.6628 21.4209 21.7926C21.2921 21.9223 21.1625 22.0494 21.032 22.1739L20.9945 22.2114C19.1787 23.9492 17.7057 24.8668 17.2119 24.9418C17.2666 24.5736 17.8647 23.4043 19.6055 21.5192L19.0527 21.0114C17.8152 22.3517 15.8574 24.7176 16.6471 25.5077C16.6471 25.5099 16.652 25.5107 16.6542 25.5129C16.7348 25.586 16.8324 25.6376 16.9381 25.6629H16.9415L19.622 26.8172L19.625 26.8191L21.125 27.4663C21.1276 27.4663 21.1302 27.4663 21.1325 27.4663L29.8681 31.2276C29.9629 31.2683 30.0649 31.2895 30.1681 31.2898C30.2922 31.2892 30.4142 31.2579 30.5231 31.1986C30.6321 31.1393 30.7247 31.0539 30.7925 30.95C30.8604 30.8461 30.9014 30.7271 30.912 30.6034C30.9225 30.4798 30.9022 30.3555 30.8529 30.2417L26.6364 20.4448ZM28.2297 27.2136L28.1292 26.9331L28.4116 27.0336C28.4906 27.0616 28.5766 27.0624 28.6561 27.0358L28.9936 27.8166C28.9534 27.859 28.9238 27.9104 28.9074 27.9666L28.8249 28.2508L28.6329 27.9846C28.5986 27.9369 28.5536 27.8979 28.5014 27.8708C28.4493 27.8437 28.3916 27.8292 28.3329 27.8286L27.9871 27.8252L28.181 27.5604C28.2167 27.5109 28.2399 27.4535 28.2484 27.393C28.2568 27.3326 28.2505 27.271 28.2297 27.2136V27.2136ZM25.313 19.5238L25.2125 19.2437L25.3171 19.2812L25.4652 19.6243L25.8132 20.4324L25.7154 20.2963C25.6811 20.2486 25.6361 20.2097 25.5839 20.1826C25.5318 20.1555 25.4741 20.141 25.4154 20.1403L25.0696 20.1369L25.2635 19.8744C25.3 19.8246 25.3236 19.7665 25.3322 19.7053C25.3409 19.6442 25.3343 19.5818 25.313 19.5238V19.5238ZM20.2749 26.1531L20.174 25.8722L20.4567 25.9731C20.5144 25.9935 20.5762 25.9996 20.6367 25.9907C20.6972 25.9818 20.7547 25.9582 20.804 25.9221L21.0665 25.7297L21.0691 26.0754C21.0695 26.1347 21.0839 26.193 21.1111 26.2456C21.1384 26.2982 21.1777 26.3436 21.2259 26.3781L21.4917 26.5682L21.2064 26.6514C21.1917 26.6558 21.1773 26.6611 21.1632 26.6672L20.2966 26.2941C20.2984 26.2461 20.291 26.1983 20.2749 26.1531V26.1531ZM22.2406 27.1311L22.4427 27.0718C22.5102 27.052 22.5707 27.0136 22.6175 26.9611C22.6642 26.9085 22.6951 26.8439 22.7069 26.7745C22.7186 26.7052 22.7106 26.634 22.6838 26.569C22.657 26.504 22.6124 26.4478 22.5552 26.4069L21.8172 25.8793L21.8109 24.9913C21.8105 24.9222 21.7909 24.8545 21.7545 24.7958C21.718 24.737 21.666 24.6895 21.6042 24.6585C21.5425 24.6274 21.4733 24.614 21.4044 24.6198C21.3355 24.6256 21.2696 24.6504 21.2139 24.6913L20.5197 25.1994L19.6779 24.8994C19.6109 24.8756 19.5386 24.8713 19.4693 24.887C19.4 24.9027 19.3366 24.9378 19.2865 24.9881C19.2364 25.0384 19.2016 25.102 19.1861 25.1713C19.1707 25.2407 19.1753 25.313 19.1994 25.3798L19.3869 25.9022L18.1494 25.3686C18.1685 25.3588 18.1895 25.3449 18.209 25.3348C18.3095 25.2804 18.4126 25.2223 18.5187 25.1571L18.6046 25.1053C18.7341 25.0251 18.8665 24.9376 19.0017 24.8428C19.0321 24.8218 19.0629 24.7997 19.0932 24.7783C19.2067 24.6986 19.3219 24.6151 19.4386 24.5278L19.5451 24.4479C19.6861 24.3407 19.8286 24.2291 19.9726 24.1131L20.0529 24.0467C20.1759 23.9467 20.2992 23.8437 20.423 23.7377C20.4605 23.7043 20.5006 23.6713 20.5392 23.6376C20.6852 23.5126 20.8307 23.3841 20.9757 23.2521L21.0241 23.2074C21.1559 23.0877 21.2862 22.9664 21.4152 22.8437C21.4527 22.8062 21.4902 22.7717 21.5277 22.7353C21.6707 22.5988 21.8114 22.4613 21.9496 22.3228C22.0876 22.1848 22.2249 22.0434 22.3621 21.9006C22.4001 21.8613 22.4376 21.8216 22.4746 21.7813C22.5871 21.6628 22.6984 21.5433 22.8084 21.4228C22.8346 21.3939 22.8616 21.3654 22.8879 21.3362C23.0186 21.1914 23.147 21.0462 23.273 20.9004C23.3049 20.8629 23.3356 20.8254 23.3671 20.7902C23.4671 20.6727 23.5651 20.5554 23.6611 20.4384C23.6919 20.4009 23.7226 20.3634 23.7526 20.3259C23.8704 20.1801 23.9844 20.0349 24.0927 19.8917C24.1092 19.8703 24.1242 19.8489 24.1404 19.8276C24.2337 19.7034 24.3219 19.5812 24.4066 19.4608C24.4257 19.4334 24.4441 19.4061 24.4644 19.3791L24.5394 19.5857L24.0312 20.2787C23.9904 20.3344 23.9658 20.4003 23.96 20.4691C23.9543 20.538 23.9677 20.6071 23.9987 20.6688C24.0297 20.7305 24.0772 20.7824 24.1359 20.8189C24.1946 20.8553 24.2622 20.8748 24.3312 20.8753L25.2181 20.8839L25.7491 21.6208C25.7838 21.669 25.8295 21.7083 25.8824 21.7355C25.9352 21.7626 25.9938 21.7768 26.0532 21.7768C26.0745 21.7768 26.0957 21.7749 26.1166 21.7712C26.203 21.7555 26.281 21.7096 26.3367 21.6418L28.2965 26.1921L27.6339 25.9614C27.5671 25.9382 27.4952 25.9343 27.4263 25.9502C27.3574 25.9661 27.2945 26.0011 27.2446 26.0513C27.1948 26.1014 27.1602 26.1646 27.1447 26.2336C27.1293 26.3025 27.1336 26.3744 27.1572 26.4411L27.4572 27.2796L26.9495 27.9729C26.9088 28.0286 26.8842 28.0945 26.8785 28.1633C26.8728 28.2321 26.8862 28.3011 26.9173 28.3627C26.9483 28.4244 26.9957 28.4763 27.0543 28.5127C27.1129 28.5491 27.1805 28.5687 27.2495 28.5692L28.136 28.5782L28.667 29.3151C28.7017 29.3633 28.7474 29.4026 28.8002 29.4297C28.8531 29.4568 28.9117 29.471 28.9711 29.4711C28.9925 29.4711 29.0138 29.4692 29.0349 29.4654C29.1042 29.4535 29.1688 29.4223 29.2212 29.3754C29.2737 29.3286 29.3119 29.2679 29.3315 29.2003L29.4361 28.8399L30.1696 30.5436L22.2406 27.1311Z" fill="#F92323"/>
<path d="M19.5425 20.4947L20.0798 21.0179C20.171 20.9241 20.2636 20.8304 20.3821 20.7115L20.4571 20.6387L19.9321 20.104L19.8293 20.206C19.73 20.3024 19.6355 20.3991 19.5425 20.4947ZM26.531 24.553L25.7922 24.0227L25.7851 23.1344C25.7847 23.0652 25.7652 22.9974 25.7288 22.9386C25.6923 22.8798 25.6402 22.8322 25.5784 22.8012C25.5166 22.7701 25.4473 22.7568 25.3784 22.7627C25.3094 22.7685 25.2434 22.7933 25.1877 22.8344L24.4966 23.3436L23.6555 23.0436C23.5884 23.0195 23.5158 23.0149 23.4462 23.0306C23.3766 23.0462 23.313 23.0814 23.2627 23.1319C23.2124 23.1824 23.1775 23.2463 23.1622 23.3159C23.1469 23.3856 23.1518 23.4581 23.1762 23.5251L23.4762 24.3662L22.967 25.0566C22.9258 25.1123 22.9009 25.1784 22.895 25.2474C22.8891 25.3164 22.9024 25.3857 22.9335 25.4476C22.9646 25.5095 23.0122 25.5616 23.071 25.5981C23.1299 25.6346 23.1977 25.6541 23.267 25.6544L24.1553 25.6615L24.6852 26.4006C24.72 26.4489 24.7657 26.4882 24.8186 26.5154C24.8716 26.5425 24.9302 26.5566 24.9897 26.5566C25.0108 26.5567 25.0319 26.555 25.0527 26.5514C25.1218 26.5397 25.1862 26.509 25.2387 26.4626C25.2912 26.4162 25.3297 26.356 25.3497 26.2889L25.5912 25.4639L26.4162 25.222C26.4836 25.2021 26.5441 25.1638 26.5907 25.1112C26.6373 25.0587 26.6683 24.9941 26.68 24.9249C26.6917 24.8556 26.6837 24.7845 26.657 24.7195C26.6303 24.6545 26.5858 24.5984 26.5287 24.5575L26.531 24.553ZM25.1832 24.7967C25.1227 24.8144 25.0676 24.847 25.0231 24.8916C24.9785 24.9361 24.9459 24.9912 24.9282 25.0517L24.8453 25.3364L24.6526 25.0682C24.6183 25.0205 24.5733 24.9815 24.5212 24.9543C24.4691 24.9271 24.4114 24.9126 24.3526 24.9119L24.0087 24.9092L24.2003 24.6494C24.2368 24.5999 24.2605 24.5423 24.2695 24.4816C24.2784 24.4208 24.2723 24.3588 24.2517 24.301L24.1501 24.0171L24.434 24.118C24.4918 24.1386 24.5538 24.1448 24.6145 24.1359C24.6753 24.127 24.7329 24.1034 24.7823 24.067L25.0422 23.8754L25.0448 24.2192C25.0456 24.278 25.0601 24.3358 25.0873 24.3879C25.1144 24.44 25.1535 24.485 25.2012 24.5192L25.4697 24.7116L25.1832 24.7967ZM20.2823 11.6575C20.3132 11.7193 20.3606 11.7714 20.4192 11.808C20.4779 11.8446 20.5455 11.8643 20.6146 11.8649L21.503 11.8716L22.0328 12.6126C22.0676 12.661 22.1134 12.7005 22.1664 12.7277C22.2194 12.7548 22.2781 12.769 22.3377 12.769C22.3588 12.7689 22.3799 12.7671 22.4007 12.7634C22.4698 12.7517 22.5342 12.721 22.5867 12.6746C22.6392 12.6282 22.6777 12.568 22.6977 12.5009L22.9392 11.6759L23.7642 11.4344C23.8317 11.4146 23.8922 11.3762 23.9389 11.3236C23.9856 11.2711 24.0166 11.2064 24.0284 11.1371C24.0401 11.0678 24.0321 10.9965 24.0053 10.9315C23.9785 10.8665 23.9339 10.8104 23.8767 10.7695L23.1402 10.234L23.1335 9.34598C23.1332 9.27672 23.1137 9.2089 23.0772 9.15004C23.0407 9.09117 22.9886 9.04357 22.9267 9.0125C22.8648 8.98143 22.7955 8.96811 22.7265 8.97402C22.6575 8.97994 22.5914 9.00484 22.5357 9.04598L21.845 9.55598L21.005 9.25636C20.9382 9.23198 20.8659 9.22729 20.7965 9.24284C20.7272 9.2584 20.6638 9.29355 20.6138 9.34411C20.5637 9.39428 20.5287 9.45767 20.5131 9.52691C20.4975 9.59614 20.5019 9.66838 20.5257 9.73523L20.8257 10.5764L20.3161 11.2671C20.275 11.3227 20.2501 11.3886 20.2442 11.4575C20.2382 11.5264 20.2514 11.5956 20.2823 11.6575ZM21.5986 10.5126L21.497 10.2287L21.7808 10.33C21.8387 10.3506 21.9007 10.3567 21.9614 10.3477C22.0222 10.3388 22.0798 10.315 22.1292 10.2786L22.3891 10.0874L22.3917 10.4309C22.3925 10.4896 22.407 10.5474 22.4342 10.5995C22.4613 10.6516 22.5003 10.6966 22.5481 10.7309L22.8166 10.9236L22.5316 11.0069C22.4712 11.0245 22.4162 11.0571 22.3717 11.1016C22.3272 11.1461 22.2946 11.2011 22.277 11.2615L22.1933 11.5465L22.001 11.278C21.9667 11.2302 21.9217 11.1912 21.8696 11.164C21.8175 11.1369 21.7597 11.1223 21.701 11.1216L21.3571 11.119L21.5487 10.8595C21.5847 10.8101 21.608 10.7527 21.6167 10.6922C21.6254 10.6318 21.6192 10.5701 21.5986 10.5126V10.5126ZM11.2175 13.4095C11.2484 13.4714 11.2958 13.5235 11.3545 13.5601C11.4132 13.5967 11.4809 13.6163 11.5501 13.6169L12.437 13.6251L12.9668 14.3642C13.0015 14.4126 13.0473 14.452 13.1002 14.4792C13.1532 14.5064 13.2118 14.5206 13.2713 14.5206C13.2925 14.5206 13.3136 14.5187 13.3343 14.515C13.4034 14.5033 13.4679 14.4726 13.5204 14.4262C13.5729 14.3798 13.6113 14.3196 13.6313 14.2525L13.8728 13.4275L14.6997 13.1856C14.7671 13.1658 14.8276 13.1274 14.8742 13.0749C14.9208 13.0223 14.9518 12.9578 14.9635 12.8885C14.9752 12.8192 14.9672 12.7481 14.9405 12.6831C14.9138 12.6182 14.8693 12.562 14.8122 12.5211L14.0735 11.9909L14.0675 11.098C14.0671 11.0288 14.0476 10.961 14.0111 10.9022C13.9747 10.8434 13.9226 10.7959 13.8608 10.7648C13.7989 10.7338 13.7297 10.7204 13.6608 10.7263C13.5918 10.7321 13.5258 10.7569 13.4701 10.798L12.779 11.308L11.9378 11.008C11.871 10.9841 11.7986 10.9796 11.7293 10.9952C11.66 11.0108 11.5966 11.0458 11.5463 11.096C11.4961 11.1463 11.4612 11.2098 11.4457 11.2791C11.4302 11.3484 11.4346 11.4207 11.4586 11.4876L11.7586 12.3287L11.2497 13.0191C11.2089 13.0749 11.1843 13.1409 11.1786 13.2098C11.1729 13.2786 11.1863 13.3478 11.2175 13.4095ZM12.5341 12.2642L12.4325 11.9804L12.7163 12.0816C12.7742 12.1022 12.8362 12.1083 12.8969 12.0994C12.9577 12.0904 13.0153 12.0667 13.0647 12.0302L13.3246 11.8386L13.3272 12.1825C13.328 12.2412 13.3425 12.299 13.3697 12.3511C13.3968 12.4032 13.4358 12.4482 13.4836 12.4825L13.7521 12.6752L13.4671 12.7581C13.4066 12.7758 13.3515 12.8084 13.3069 12.8529C13.2624 12.8975 13.2297 12.9526 13.2121 13.0131L13.1292 13.2981L12.9365 13.0296C12.9022 12.9819 12.8572 12.9428 12.8051 12.9157C12.753 12.8885 12.6952 12.874 12.6365 12.8732L12.2926 12.8706L12.4838 12.6111C12.5196 12.5616 12.5427 12.5042 12.5512 12.4437C12.5597 12.3833 12.5533 12.3217 12.5326 12.2642H12.5341ZM13.2518 23.2034C13.2124 23.1465 13.1578 23.1018 13.0942 23.0743C13.0307 23.0468 12.9607 23.0376 12.8922 23.0477L12.0425 23.1685L11.4425 22.5055C11.3949 22.4528 11.3334 22.4147 11.2651 22.3956C11.1967 22.3764 11.1243 22.3771 11.0564 22.3975C10.9884 22.4179 10.9276 22.4571 10.881 22.5107C10.8345 22.5643 10.8041 22.63 10.7933 22.7001L10.6591 23.5832L9.88322 23.95C9.8206 23.9795 9.76736 24.0257 9.7294 24.0836C9.69144 24.1415 9.67024 24.2087 9.66814 24.2779C9.66604 24.3471 9.68314 24.4155 9.71752 24.4756C9.75191 24.5356 9.80225 24.585 9.86297 24.6182L10.6437 25.045L10.76 25.945C10.7689 26.0147 10.7973 26.0805 10.8419 26.1349C10.8864 26.1892 10.9454 26.23 11.012 26.2525C11.0786 26.275 11.1502 26.2783 11.2187 26.2621C11.2871 26.2458 11.3496 26.2107 11.399 26.1606L12.005 25.5501L12.8472 25.7294C12.916 25.7441 12.9876 25.7391 13.0537 25.7151C13.1199 25.691 13.1779 25.6489 13.2212 25.5934C13.2645 25.5379 13.2913 25.4714 13.2986 25.4014C13.3059 25.3314 13.2933 25.2608 13.2623 25.1976L12.863 24.3809L13.2781 23.596C13.3105 23.5345 13.3252 23.4653 13.3206 23.396C13.316 23.3266 13.2922 23.2599 13.2518 23.2034ZM12.1043 24.5376L12.2491 24.8342L11.9588 24.7724C11.8973 24.759 11.8333 24.7615 11.773 24.7796C11.7126 24.7977 11.6579 24.8308 11.6138 24.8759L11.4053 25.087L11.363 24.7596C11.3554 24.701 11.3341 24.645 11.3008 24.5962C11.2675 24.5474 11.2232 24.5071 11.1713 24.4787L10.8713 24.3137L11.1627 24.1761C11.2183 24.1498 11.2665 24.1103 11.3032 24.061C11.3399 24.0117 11.3639 23.9541 11.3731 23.8934L11.4185 23.5956L11.6202 23.8206C11.6612 23.8664 11.7129 23.9013 11.7707 23.9222C11.8285 23.9432 11.8905 23.9495 11.9513 23.9406L12.2708 23.8952L12.1103 24.1982C12.0827 24.2503 12.0678 24.3082 12.0668 24.3672C12.0657 24.4262 12.0786 24.4846 12.1043 24.5376V24.5376ZM15.5843 15.9632C15.514 16.0336 15.4746 16.1289 15.4746 16.2284C15.4746 16.3278 15.514 16.4232 15.5843 16.4935L18.7662 19.6757C18.8008 19.7116 18.8422 19.7401 18.8879 19.7598C18.9337 19.7794 18.9829 19.7898 19.0327 19.7902C19.0825 19.7906 19.1319 19.7811 19.178 19.7623C19.224 19.7434 19.2659 19.7156 19.3011 19.6804C19.3363 19.6452 19.3642 19.6033 19.383 19.5572C19.4019 19.5111 19.4114 19.4618 19.4109 19.412C19.4105 19.3622 19.4002 19.313 19.3805 19.2672C19.3609 19.2215 19.3323 19.1801 19.2965 19.1455L16.1146 15.9632C16.0443 15.8929 15.9489 15.8534 15.8495 15.8534C15.75 15.8534 15.6547 15.8929 15.5843 15.9632ZM12.8532 19.7931C12.814 19.8845 12.8128 19.9877 12.8497 20.0801C12.8866 20.1724 12.9587 20.2463 13.0501 20.2855L16.7622 21.8751C16.8088 21.8954 16.8592 21.9057 16.91 21.9055C16.9963 21.9055 17.08 21.8756 17.1469 21.8211C17.2138 21.7665 17.2598 21.6905 17.2772 21.6059C17.2946 21.5213 17.2822 21.4333 17.2422 21.3568C17.2022 21.2803 17.1371 21.2199 17.0577 21.1859L13.3452 19.5947C13.2999 19.5754 13.2512 19.5653 13.2019 19.5648C13.1527 19.5643 13.1038 19.5736 13.0581 19.592C13.0124 19.6104 12.9708 19.6377 12.9357 19.6722C12.9005 19.7067 12.8725 19.7478 12.8532 19.7931V19.7931ZM19.4138 13.2321C19.3225 13.2713 19.2504 13.3452 19.2134 13.4375C19.1765 13.5299 19.1778 13.6331 19.217 13.7245L20.8081 17.437C20.8267 17.4834 20.8543 17.5257 20.8895 17.5613C20.9246 17.5969 20.9665 17.6251 21.0127 17.6442C21.0589 17.6634 21.1085 17.6731 21.1585 17.6728C21.2085 17.6725 21.258 17.6623 21.3039 17.6426C21.3499 17.6229 21.3915 17.5942 21.4262 17.5582C21.4609 17.5222 21.4881 17.4796 21.5061 17.433C21.5242 17.3863 21.5327 17.3365 21.5312 17.2865C21.5296 17.2365 21.5182 17.1873 21.4973 17.1419L19.9062 13.4294C19.8868 13.3841 19.8587 13.343 19.8235 13.3086C19.7883 13.2742 19.7466 13.2471 19.7009 13.2287C19.6552 13.2104 19.6063 13.2013 19.557 13.2019C19.5078 13.2024 19.4591 13.2127 19.4138 13.2321Z" fill="#F92323"/>
<path d="M12.2295 16.3837L11.6992 16.9141L12.2296 17.4443L12.7599 16.9139L12.2295 16.3837Z" fill="#F92323"/>
<path d="M17.9717 15.1669L17.4414 15.6973L17.9717 16.2276L18.5021 15.6973L17.9717 15.1669Z" fill="#F92323"/>
<path d="M17.1768 19.5205L16.6465 20.0508L17.1768 20.5811L17.7071 20.0508L17.1768 19.5205Z" fill="#F92323"/>
<path d="M23.5401 14.372L23.0098 14.9023L23.5401 15.4327L24.0704 14.9024L23.5401 14.372Z" fill="#F92323"/>
<path d="M17.6435 10.2196L17.1133 10.75L17.6437 11.2802L18.1739 10.7498L17.6435 10.2196Z" fill="#F92323"/>
<path d="M10.2804 20.7354L9.75 21.2656L10.2805 21.7963L10.8109 21.266L10.2804 20.7354Z" fill="#F92323"/>
<path d="M25.1318 13.8417L25.6624 13.3115L26.1927 13.8417L26.7229 13.3115L26.1927 12.7812L26.7229 12.251L26.1927 11.7207L25.6624 12.251L25.1318 11.7207L24.6016 12.251L25.1322 12.7812L24.6016 13.3115L25.1318 13.8417Z" fill="#F92323"/>
<path d="M15.0556 26.0391L14.5253 26.5697L13.9951 26.0391L13.4648 26.5697L13.9951 27.0999L13.4648 27.6302L13.9951 28.1604L14.5253 27.6302L15.0556 28.1604L15.5858 27.6302L15.0556 27.0999L15.5858 26.5697L15.0556 26.0391Z" fill="#F92323"/>
</svg>
