<svg width="41" height="41" viewBox="0 0 41 41" fill="none" xmlns="http://www.w3.org/2000/svg">
<g clip-path="url(#clip0_1_17676)">
<path d="M20.875 40.5C31.9207 40.5 40.875 31.5457 40.875 20.5C40.875 9.4543 31.9207 0.5 20.875 0.5C9.8293 0.5 0.875 9.4543 0.875 20.5C0.875 31.5457 9.8293 40.5 20.875 40.5Z" fill="#F6F6F6"/>
<path d="M0.875 20.4998C0.875 28.0807 5.09297 34.676 11.3098 38.068V2.93164C5.09297 6.32367 0.875 12.919 0.875 20.4998Z" fill="#D80027"/>
<path d="M39.6311 27.4559C40.435 25.2893 40.875 22.9459 40.875 20.4995C40.875 18.053 40.435 15.7095 39.6311 13.543H2.11906C1.31508 15.7095 0.875 18.053 0.875 20.4995C0.875 22.9459 1.31508 25.2893 2.11906 27.4559L20.875 29.1951L39.6311 27.4559Z" fill="#D80027"/>
<path d="M20.8751 40.4996C29.4745 40.4996 36.8052 35.0721 39.6312 27.4561H2.11914C4.94492 35.0721 12.2759 40.4996 20.8751 40.4996Z" fill="#6DA544"/>
<path d="M0.875 20.5005C0.875 29.741 7.14227 37.5165 15.6576 39.8115V1.18945C7.14227 3.48445 0.875 11.2599 0.875 20.5005Z" fill="#D80027"/>
<path d="M13.1116 9.30066L11.267 7.45605L10.0373 8.6859L8.80766 7.45605L6.96305 9.30066L8.19281 10.5304L6.96289 11.7603L8.8075 13.6049L10.0373 12.375L11.267 13.6049L13.1116 11.7603L11.8819 10.5304L13.1116 9.30066Z" fill="#F6F6F6"/>
</g>
<defs>
<clipPath id="clip0_1_17676">
<rect width="40" height="40" fill="white" transform="translate(0.875 0.5)"/>
</clipPath>
</defs>
</svg>
