<svg width="41" height="40" viewBox="0 0 41 40" fill="none" xmlns="http://www.w3.org/2000/svg">
<rect x="0.222656" width="40" height="40" rx="20" fill="#F5F2ED"/>
<g clip-path="url(#clip0_154_13641)">
<path d="M30.5836 25.6364C30.6653 25.3907 30.8239 24.4257 30.8239 23.5486C30.8239 19.925 28.7507 16.6709 25.5223 15.1918V14.4179C25.5223 14.2235 25.3648 14.0659 25.1703 14.0659C24.9758 14.0659 24.8183 14.2235 24.8183 14.4179V15.0685H18.4539C18.4539 10.5368 18.4539 13.4166 18.4539 12.2383C19.0253 12.2383 24.2428 12.2383 24.8183 12.2383V12.773C24.8183 12.9674 24.9758 13.125 25.1703 13.125C25.3648 13.125 25.5223 12.9674 25.5223 12.773V11.8863C25.5223 11.6919 25.3648 11.5343 25.1703 11.5343H23.4018V8.35204C23.4018 8.15762 23.2442 8 23.0497 8H20.2224C20.028 8 19.8703 8.15762 19.8703 8.35204V11.5342H18.1019C17.9075 11.5342 17.7498 11.6918 17.7498 11.8863V12.6502L15.707 12.6528C15.2119 11.7867 14.0958 11.1808 12.8005 11.1808C11.0473 11.1808 9.62109 12.29 9.62109 13.6534C9.62109 15.0168 11.0474 16.126 12.8005 16.126C14.1541 16.126 15.3122 15.4645 15.77 14.5355L17.7498 14.533V15.1975C10.4565 18.7399 10.8669 28.8682 17.9572 31.97C18.0015 31.9896 18.0523 32 18.0991 32C18.1566 32 25.1497 32.0002 25.1798 31.9997C25.5609 31.9923 29.5262 30.1698 30.5836 25.6364ZM20.5744 8.70408H22.6977V9.17901H21.9895C21.795 9.17901 21.6375 9.33663 21.6375 9.53105C21.6375 9.72547 21.795 9.88309 21.9895 9.88309H22.6977V11.5343H20.5744V8.70408ZM22.6012 23.3029C24.9401 22.9307 27.8388 23.4459 29.9293 25.2612C27.3491 26.0878 24.9836 25.3967 22.6377 24.0935C22.5856 24.0635 22.6012 24.1728 22.6012 23.3029ZM30.0703 24.4641C27.8862 22.7402 24.975 22.2454 22.6012 22.5906V15.7725H25.0966C28.5278 17.2728 30.4619 20.8471 30.0703 24.4641ZM12.8005 15.4219C11.4357 15.4219 10.3252 14.6286 10.3252 13.6534C10.3252 12.6783 11.4357 11.8849 12.8005 11.8849C14.321 11.8849 15.5959 12.921 15.2058 14.0701C14.8966 14.9758 13.7702 15.4219 12.8005 15.4219ZM15.9708 13.8312C15.9843 13.6853 15.9852 13.544 15.9562 13.3566L17.7495 13.3543C17.7499 13.7004 17.7498 13.5872 17.7498 13.8289L15.9708 13.8312ZM13.6114 20.785C14.4175 21.0163 15.2175 21.2806 15.9941 21.5727C16.1761 21.6411 16.3791 21.549 16.4476 21.3671C16.516 21.1851 16.4239 20.9821 16.242 20.9136C15.4671 20.6222 14.6695 20.3579 13.8658 20.1256C14.717 18.1678 16.3003 16.6524 18.1808 15.7726H20.718V17.0372C20.718 17.2317 20.8756 17.3893 21.07 17.3893C21.2644 17.3893 21.422 17.2317 21.422 17.0372V15.7726H21.8971C21.8971 18.6907 21.8971 22.0236 21.8971 23.6742C21.7497 23.59 21.6162 23.5137 21.422 23.4032V18.6702C21.422 18.4758 21.2644 18.3182 21.07 18.3182C20.8756 18.3182 20.718 18.4758 20.718 18.6702V23.0082C19.8043 22.5025 18.7465 21.9578 17.7861 21.5486C17.6072 21.4724 17.4004 21.5556 17.3242 21.7345C17.2481 21.9134 17.3313 22.1202 17.5101 22.1963C19.4133 23.0072 21.3446 24.1834 22.2927 24.7072C24.6647 26.0252 27.0692 26.7559 29.7432 26.0487C29.034 28.3481 27.3648 30.2815 25.0975 31.2958H18.1747C14.1979 29.5167 12.1841 25.0061 13.6114 20.785Z" fill="#F92323"/>
<path d="M15.9817 26.0822C15.4294 26.0822 14.9801 26.5315 14.9801 27.0838C14.9801 27.6361 15.4294 28.0854 15.9817 28.0854C16.534 28.0854 16.9833 27.6361 16.9833 27.0838C16.9833 26.5315 16.534 26.0822 15.9817 26.0822ZM15.9817 27.3813C15.8177 27.3813 15.6842 27.2478 15.6842 27.0838C15.6842 26.9197 15.8177 26.7862 15.9817 26.7862C16.1458 26.7862 16.2792 26.9197 16.2792 27.0838C16.2792 27.2478 16.1458 27.3813 15.9817 27.3813ZM19.8694 29.9098C20.4532 29.9098 20.9283 29.4348 20.9283 28.8509C20.9283 28.267 20.4532 27.792 19.8694 27.792C19.2855 27.792 18.8105 28.267 18.8105 28.8509C18.8105 29.4348 19.2855 29.9098 19.8694 29.9098ZM19.8694 28.4961C20.065 28.4961 20.2242 28.6553 20.2242 28.8509C20.2242 29.0465 20.065 29.2057 19.8694 29.2057C19.6737 29.2057 19.5146 29.0465 19.5146 28.8509C19.5146 28.6553 19.6737 28.4961 19.8694 28.4961ZM17.3956 28.8518C17.2012 28.8518 17.0434 29.0097 17.0434 29.2041C17.0434 29.3985 17.2012 29.5564 17.3956 29.5564C17.5901 29.5564 17.7479 29.3985 17.7479 29.2041C17.7479 29.0097 17.5901 28.8518 17.3956 28.8518ZM15.6285 25.3158C15.823 25.3158 15.9808 25.1579 15.9808 24.9635C15.9808 24.7691 15.823 24.6112 15.6285 24.6112C15.4341 24.6112 15.2763 24.7691 15.2763 24.9635C15.2763 25.1579 15.4341 25.3158 15.6285 25.3158ZM18.4559 27.0829C18.6503 27.0829 18.8082 26.925 18.8082 26.7306C18.8082 26.5362 18.6503 26.3783 18.4559 26.3783C18.2615 26.3783 18.1036 26.5362 18.1036 26.7306C18.1036 26.925 18.2615 27.0829 18.4559 27.0829ZM10.9004 13.3329C10.7954 13.5667 10.9682 13.8291 11.2213 13.8291C11.3557 13.8291 11.4841 13.7517 11.5427 13.6211C11.725 13.2151 12.3997 13.0193 12.7616 13.1677C12.9416 13.2412 13.1471 13.155 13.2207 12.975C13.5321 12.2133 11.4402 12.1304 10.9004 13.3329ZM24.2046 10.1186C24.399 10.1186 24.5568 9.96076 24.5568 9.76634C24.5568 9.57192 24.399 9.41406 24.2046 9.41406C24.0101 9.41406 23.8523 9.57192 23.8523 9.76634C23.8523 9.96076 24.0101 10.1186 24.2046 10.1186Z" fill="#F92323"/>
<path d="M25.405 9.41158C25.5996 9.41158 25.7573 9.25386 25.7573 9.05931C25.7573 8.86475 25.5996 8.70703 25.405 8.70703C25.2105 8.70703 25.0527 8.86475 25.0527 9.05931C25.0527 9.25386 25.2105 9.41158 25.405 9.41158Z" fill="#F92323"/>
<path d="M25.405 10.8256C25.5996 10.8256 25.7573 10.6679 25.7573 10.4734C25.7573 10.2788 25.5996 10.1211 25.405 10.1211C25.2105 10.1211 25.0527 10.2788 25.0527 10.4734C25.0527 10.6679 25.2105 10.8256 25.405 10.8256Z" fill="#F92323"/>
<path d="M26.5593 8.70455C26.7538 8.70455 26.9116 8.5467 26.9116 8.35228C26.9116 8.15786 26.7537 8 26.5593 8C26.3649 8 26.207 8.15786 26.207 8.35228C26.207 8.5467 26.3648 8.70455 26.5593 8.70455ZM26.5593 11.532C26.7538 11.532 26.9116 11.3741 26.9116 11.1797C26.9116 10.9853 26.7538 10.8274 26.5593 10.8274C26.3648 10.8274 26.207 10.9853 26.207 11.1797C26.207 11.3741 26.3648 11.532 26.5593 11.532ZM26.5593 10.1183C26.7538 10.1183 26.9116 9.9604 26.9116 9.76598C26.9116 9.57156 26.7538 9.41371 26.5593 9.41371C26.3648 9.41371 26.207 9.57156 26.207 9.76598C26.207 9.9604 26.3648 10.1183 26.5593 10.1183Z" fill="#F92323"/>
</g>
<defs>
<clipPath id="clip0_154_13641">
<rect width="24" height="24" fill="white" transform="translate(8.22266 8)"/>
</clipPath>
</defs>
</svg>
