<svg width="41" height="40" viewBox="0 0 41 40" fill="none" xmlns="http://www.w3.org/2000/svg">
<rect x="0.554688" width="40" height="40" rx="20" fill="#F5F2ED"/>
<g clip-path="url(#clip0_154_13667)">
<path d="M17.9547 18.5L22.7197 10.245C22.0247 10.09 21.2997 10 20.5547 10C18.1547 10 15.9597 10.845 14.2347 12.255L17.8997 18.6L17.9547 18.5ZM30.0947 17C29.1747 14.075 26.9447 11.74 24.0997 10.66L20.4397 17H30.0947ZM30.3547 18H22.8647L23.1547 18.5L27.9197 26.75C29.5497 24.97 30.5547 22.605 30.5547 20C30.5547 19.315 30.4847 18.645 30.3547 18ZM17.0897 20L13.1897 13.25C11.5597 15.03 10.5547 17.395 10.5547 20C10.5547 20.685 10.6247 21.355 10.7547 22H18.2447L17.0897 20ZM11.0147 23C11.9347 25.925 14.1647 28.26 17.0097 29.34L20.6697 23H11.0147ZM22.2847 23L18.3847 29.755C19.0847 29.91 19.8097 30 20.5547 30C22.9547 30 25.1497 29.155 26.8747 27.745L23.2097 21.4L22.2847 23Z" fill="#F92323"/>
</g>
<defs>
<clipPath id="clip0_154_13667">
<rect width="24" height="24" fill="white" transform="translate(8.55469 8)"/>
</clipPath>
</defs>
</svg>
