<svg width="41" height="41" viewBox="0 0 41 41" fill="none" xmlns="http://www.w3.org/2000/svg">
<g clip-path="url(#clip0_1_17669)">
<path d="M20.709 40.5C31.7547 40.5 40.709 31.5457 40.709 20.5C40.709 9.4543 31.7547 0.5 20.709 0.5C9.66329 0.5 0.708984 9.4543 0.708984 20.5C0.708984 31.5457 9.66329 40.5 20.709 40.5Z" fill="#F6F6F6"/>
<path d="M40.7091 20.5C40.7091 9.45437 31.7547 0.5 20.7091 0.5C16.7966 0.5 13.147 1.62461 10.0644 3.56648L14.4482 5.42906L8.53516 7.94141L14.4482 10.4537L8.53516 12.9659L14.4482 15.478L8.53516 17.9898L14.4482 20.5014L8.53516 23.0136L14.4482 25.5256L8.53516 28.0374L14.4482 30.5495L8.53516 33.0616L14.4482 35.5734L10.0663 37.435C13.1486 39.3759 16.7973 40.5 20.7091 40.5C31.7547 40.5 40.7091 31.5456 40.7091 20.5Z" fill="#751A46"/>
</g>
<defs>
<clipPath id="clip0_1_17669">
<rect width="40" height="40" fill="white" transform="translate(0.708984 0.5)"/>
</clipPath>
</defs>
</svg>
