<svg width="41" height="41" viewBox="0 0 41 41" fill="none" xmlns="http://www.w3.org/2000/svg">
<g clip-path="url(#clip0_1_17666)">
<path d="M20.291 40.5C31.3367 40.5 40.291 31.5457 40.291 20.5C40.291 9.4543 31.3367 0.5 20.291 0.5C9.24532 0.5 0.291016 9.4543 0.291016 20.5C0.291016 31.5457 9.24532 40.5 20.291 40.5Z" fill="#6DA544"/>
<path d="M11.5957 24.4131C11.5957 25.8538 12.7637 27.0218 14.2044 27.0218H22.0305C22.0305 28.2224 23.0037 29.1957 24.2044 29.1957H26.813C28.0137 29.1957 28.9869 28.2224 28.9869 27.0218V24.4131H11.5957Z" fill="#F6F6F6"/>
<path d="M29.204 11.8047V17.8916C29.204 18.8506 28.4238 19.6308 27.4648 19.6308V22.2395C29.8623 22.2395 31.8127 20.289 31.8127 17.8916V11.8047H29.204Z" fill="#F6F6F6"/>
<path d="M10.5087 17.8926C10.5087 18.8516 9.72852 19.6318 8.76953 19.6318V22.2404C11.167 22.2404 13.1173 20.29 13.1173 17.8926V11.8057H10.5087V17.8926Z" fill="#F6F6F6"/>
<path d="M25.291 11.8047H27.8997V17.8916H25.291V11.8047Z" fill="#F6F6F6"/>
<path d="M21.3784 15.283C21.3784 15.5227 21.1833 15.7177 20.9436 15.7177C20.7039 15.7177 20.5088 15.5227 20.5088 15.283V11.8047H17.9002V15.283C17.9002 15.5227 17.7051 15.7177 17.4654 15.7177C17.2257 15.7177 17.0306 15.5227 17.0306 15.283V11.8047H14.4219V15.283C14.4219 16.9612 15.7872 18.3265 17.4654 18.3265C18.1117 18.3265 18.7111 18.1234 19.2045 17.7784C19.6979 18.1233 20.2973 18.3265 20.9437 18.3265C21.0738 18.3265 21.2018 18.3173 21.3277 18.3013C21.1428 19.063 20.4569 19.6308 19.6393 19.6308V22.2395C22.0367 22.2395 23.9871 20.289 23.9871 17.8916V15.283V11.8047H21.3784V15.283H21.3784Z" fill="#F6F6F6"/>
<path d="M14.4219 19.6309H18.3349V22.2395H14.4219V19.6309Z" fill="#F6F6F6"/>
</g>
<defs>
<clipPath id="clip0_1_17666">
<rect width="40" height="40" fill="white" transform="translate(0.291016 0.5)"/>
</clipPath>
</defs>
</svg>
