<svg width="41" height="41" viewBox="0 0 41 41" fill="none" xmlns="http://www.w3.org/2000/svg">
<g clip-path="url(#clip0_1_17672)">
<path d="M2.10953 11.8046C0.838125 14.4339 0.125 17.3837 0.125 20.5002C0.125 23.6167 0.838125 26.5664 2.10953 29.1958L20.125 30.935L38.1405 29.1958C39.4119 26.5664 40.125 23.6167 40.125 20.5002C40.125 17.3837 39.4119 14.4339 38.1405 11.8046L20.125 10.0654L2.10953 11.8046Z" fill="#F6F6F6"/>
<path d="M2.10938 29.1953C5.34422 35.8852 12.1949 40.4997 20.1241 40.4997C28.0534 40.4997 34.9041 35.8852 38.1389 29.1953H2.10938Z" fill="black"/>
<path d="M2.10938 11.8044H38.1389C34.9041 5.11445 28.0534 0.5 20.1241 0.5C12.1949 0.5 5.34422 5.11445 2.10938 11.8044Z" fill="#D80027"/>
<path d="M5.98285 6.35742C-1.82762 14.1679 -1.82762 26.8312 5.98285 34.6418C9.21043 31.4142 12.3146 28.3101 20.125 20.4996L5.98285 6.35742Z" fill="#496E2D"/>
</g>
<defs>
<clipPath id="clip0_1_17672">
<rect width="40" height="40" fill="white" transform="translate(0.125 0.5)"/>
</clipPath>
</defs>
</svg>
