<svg width="41" height="41" viewBox="0 0 41 41" fill="none" xmlns="http://www.w3.org/2000/svg">
<g clip-path="url(#clip0_1_17682)">
<path d="M20.709 40.5C31.7547 40.5 40.709 31.5457 40.709 20.5C40.709 9.4543 31.7547 0.5 20.709 0.5C9.66329 0.5 0.708984 9.4543 0.708984 20.5C0.708984 31.5457 9.66329 40.5 20.709 40.5Z" fill="#F6F6F6"/>
<path d="M12.0137 27.4561L13.7528 39.2557C15.9194 40.0597 18.2629 40.4996 20.7093 40.4996C29.3085 40.4996 36.6395 35.0721 39.4652 27.4561H12.0137Z" fill="black"/>
<path d="M12.0137 13.5435L13.7528 1.74383C15.9194 0.939844 18.2629 0.5 20.7093 0.5C29.3085 0.5 36.6395 5.9275 39.4652 13.5435H12.0137Z" fill="#6DA544"/>
<path d="M0.708984 20.5002C0.708984 29.0995 6.13656 36.4303 13.7525 39.2562V1.74414C6.13656 4.57 0.708984 11.9009 0.708984 20.5002Z" fill="#A2001D"/>
</g>
<defs>
<clipPath id="clip0_1_17682">
<rect width="40" height="40" fill="white" transform="translate(0.708984 0.5)"/>
</clipPath>
</defs>
</svg>
