<svg width="41" height="41" viewBox="0 0 41 41" fill="none" xmlns="http://www.w3.org/2000/svg">
<g clip-path="url(#clip0_1_17663)">
<path d="M20.875 40.5C31.9207 40.5 40.875 31.5457 40.875 20.5C40.875 9.4543 31.9207 0.5 20.875 0.5C9.8293 0.5 0.875 9.4543 0.875 20.5C0.875 31.5457 9.8293 40.5 20.875 40.5Z" fill="#F6F6F6"/>
<path d="M20.8752 40.4996C29.4745 40.4996 36.8053 35.0721 39.6312 27.4561H2.11914C4.945 35.0721 12.2759 40.4996 20.8752 40.4996Z" fill="black"/>
<path d="M20.8752 0.5C12.2759 0.5 4.945 5.9275 2.11914 13.5435H39.6312C36.8053 5.9275 29.4745 0.5 20.8752 0.5Z" fill="#D80027"/>
</g>
<defs>
<clipPath id="clip0_1_17663">
<rect width="40" height="40" fill="white" transform="translate(0.875 0.5)"/>
</clipPath>
</defs>
</svg>
