<svg width="64" height="40" viewBox="0 0 64 40" fill="none" xmlns="http://www.w3.org/2000/svg">
<path fill-rule="evenodd" clip-rule="evenodd" d="M58.9466 0H4.21128C1.88546 0 0 1.88898 0 4.21452V35.7855C0 38.1131 1.89019 40 4.21128 40H58.9466C61.2724 40 63.1579 38.111 63.1579 35.7855V4.21452C63.1579 1.8869 61.2677 0 58.9466 0Z" fill="#F4F4F4"/>
<path fill-rule="evenodd" clip-rule="evenodd" d="M40.4171 32.3971C38.0186 34.1585 34.5421 35.0983 31.5488 35.0983C27.3518 35.0983 23.5735 33.5517 20.715 30.9794C20.4904 30.7771 20.6916 30.5014 20.9611 30.6589C24.046 32.4472 27.8603 33.523 31.8004 33.523C34.4576 33.523 37.3808 32.9753 40.0686 31.8386C40.4746 31.6667 40.8142 32.1035 40.4171 32.3971Z" fill="#E87E04"/>
<path fill-rule="evenodd" clip-rule="evenodd" d="M41.4145 31.2605C41.1091 30.8703 39.3879 31.0762 38.6153 31.1674C38.38 31.1961 38.344 30.992 38.556 30.8452C39.9269 29.884 42.1763 30.1614 42.4386 30.4836C42.7009 30.8076 42.3703 33.0542 41.0821 34.1264C40.8845 34.2911 40.6958 34.2034 40.7839 33.985C41.0731 33.2654 41.7217 31.6526 41.4145 31.2605Z" fill="#E87E04"/>
<path fill-rule="evenodd" clip-rule="evenodd" d="M33.974 18.1532C33.974 19.8455 34.0169 21.2569 33.1584 22.7599C32.4654 23.9818 31.3678 24.7333 30.1413 24.7333C28.4672 24.7333 27.4922 23.4625 27.4922 21.5868C27.4922 17.8843 30.822 17.2123 33.974 17.2123V18.1532ZM38.3708 28.7412C38.0826 28.9979 37.6656 29.0162 37.3405 28.8451C35.8933 27.6476 35.6358 27.0916 34.8386 25.9491C32.447 28.3808 30.7545 29.1078 27.6516 29.1078C23.9846 29.1078 21.127 26.8534 21.127 22.3383C21.127 18.813 23.0463 16.4119 25.7752 15.2388C28.1422 14.2002 31.4475 14.0169 33.974 13.7298V13.1677C33.974 12.1351 34.0537 10.9132 33.4466 10.0212C32.9131 9.22081 31.8951 8.89088 30.9998 8.89088C29.338 8.89088 27.854 9.74013 27.4922 11.4997C27.4186 11.8907 27.1304 12.2757 26.7379 12.294L22.5067 11.8419C22.151 11.7624 21.7586 11.4753 21.8567 10.9315C22.8317 5.82382 27.4615 4.28418 31.6069 4.28418C33.7287 4.28418 36.5004 4.84627 38.1745 6.44701C40.2963 8.42044 40.0939 11.0537 40.0939 13.9192V20.6887C40.0939 22.7232 40.9402 23.6152 41.7374 24.715C42.0194 25.106 42.0808 25.5764 41.7251 25.8697C40.8359 26.609 39.2538 27.9837 38.383 28.7535L38.3708 28.7412" fill="#333333"/>
</svg>
