<svg width="64" height="24" viewBox="0 0 64 24" fill="none" xmlns="http://www.w3.org/2000/svg">
<path d="M48.9704 6.41628C49.2191 6.21732 49.3434 6.11784 49.4678 6.01836C51.1963 4.551 53.4097 4.71266 54.8895 6.45359C55.0388 6.62768 55.1134 6.64012 55.2626 6.4909C55.3621 6.37898 55.474 6.29193 55.5735 6.18002C56.73 5.04841 58.2595 4.71266 59.6895 5.34686C61.1942 6.01836 62.0025 7.1997 62.0149 8.85359C62.0398 12.4225 62.0274 15.979 62.0274 19.5479C62.0274 20.8163 61.2439 21.6121 59.988 21.6121C59.4906 21.6121 58.9932 21.5748 58.4958 21.6246C57.9859 21.6743 57.8367 21.5126 57.8367 20.9779C57.8616 17.4961 57.8491 14.0142 57.8491 10.5323C57.8491 10.3831 57.8491 10.2463 57.8491 10.0971C57.8367 9.28882 57.5134 8.95307 56.7424 8.91576C56.046 8.87846 55.561 9.30126 55.4864 10.0101C55.474 10.1717 55.4864 10.3458 55.4864 10.5075C55.4864 13.5168 55.4864 16.5137 55.4864 19.523C55.4864 20.8411 54.7279 21.6121 53.4097 21.5997C52.7382 21.5873 51.8305 21.8981 51.445 21.4629C51.1092 21.0899 51.3331 20.2069 51.3331 19.5479C51.3331 16.4639 51.3331 13.3676 51.3331 10.2836C51.3331 9.18934 50.6243 8.62976 49.704 9.00281C49.132 9.23908 48.9455 9.69918 48.9455 10.2961C48.9579 13.181 48.9455 16.0536 48.9455 18.9386C48.9455 19.1624 48.9455 19.3987 48.9455 19.6225C48.9082 20.8287 48.1372 21.5873 46.9434 21.5997C46.446 21.6121 45.9486 21.5624 45.4512 21.6121C44.9165 21.6619 44.7548 21.5126 44.7673 20.9406C44.7921 16.0536 44.7797 11.1665 44.7797 6.26706C44.7797 6.05566 44.7921 5.8567 44.7797 5.6453C44.7548 5.37173 44.8667 5.28468 45.1403 5.28468C46.2844 5.29712 47.416 5.29712 48.56 5.28468C48.846 5.28468 48.9828 5.35929 48.9579 5.67017C48.9331 5.89401 48.9579 6.09297 48.9704 6.41628Z" fill="#02B9EF"/>
<path d="M22.607 13.1564C22.607 14.86 22.607 16.5512 22.607 18.2548C22.5946 20.4683 21.4381 21.6123 19.2247 21.6248C18.2547 21.6248 17.2723 21.6372 16.3024 21.6248C14.3376 21.5999 12.8951 20.2942 12.7956 18.3294C12.721 16.9243 12.7086 15.5066 12.7832 14.1015C12.8827 12.0869 14.4247 10.6693 16.464 10.6445C16.9987 10.632 17.5459 10.6445 18.0806 10.6445C18.6029 10.632 18.8019 10.3336 18.7894 9.83617C18.7894 9.33876 18.5656 9.11492 18.0682 9.13979C17.5086 9.15223 16.949 9.15223 16.3894 9.13979C15.0215 9.11492 14.263 8.36881 14.2754 7.0258C14.2754 6.47865 14.0267 5.74497 14.3874 5.42166C14.6982 5.14808 15.407 5.32217 15.9418 5.32217C17.3345 5.30974 18.7148 5.32217 20.1076 5.32217C21.5873 5.32217 22.5946 6.32943 22.607 7.82166C22.6195 9.58746 22.607 11.3781 22.607 13.1564ZM18.8019 15.9792C18.8019 15.7678 18.8019 15.5688 18.8019 15.3574C18.8019 14.089 18.8019 14.089 17.5335 14.1388C16.8993 14.1636 16.5511 14.4869 16.5386 15.146C16.5262 15.6683 16.5262 16.1781 16.5386 16.7004C16.5511 17.5958 16.949 17.832 18.2423 17.8693C19.1998 17.8942 18.7148 17.2227 18.8019 16.8496C18.8516 16.5761 18.7894 16.2652 18.8019 15.9792ZM33.6744 11.8009C33.6744 13.7035 33.6993 15.6186 33.662 17.5211C33.6371 18.9885 33.2889 20.3191 31.8713 21.1025C31.2993 21.4134 30.6775 21.5875 30.0309 21.5999C28.6008 21.6248 27.1708 21.5999 25.7407 21.6248C25.3925 21.6248 25.3179 21.5004 25.3304 21.1895C25.3552 20.6673 25.3179 20.1574 25.3428 19.6351C25.3677 18.6403 26.1262 17.8818 27.121 17.8445C27.7677 17.8196 28.4019 17.832 29.0485 17.8445C29.5708 17.8445 29.8568 17.6331 29.8568 17.0735C29.8568 16.5015 29.5832 16.3025 29.0609 16.2901C28.1905 16.2652 27.32 16.3895 26.462 16.1408C24.9822 15.7056 23.9003 14.4745 23.863 12.945C23.7884 10.5201 23.8381 8.09523 23.8257 5.67036C23.8257 5.39679 23.9127 5.30974 24.1863 5.32217C25.206 5.33461 26.2133 5.34704 27.2329 5.32217C27.6806 5.30974 27.6184 5.55844 27.6184 5.83202C27.6184 7.66 27.6184 9.47555 27.6184 11.3035C27.6184 12.0994 27.9915 12.5222 28.6879 12.5471C29.5086 12.5719 29.8692 12.2362 29.8692 11.403C29.8692 9.56259 29.8817 7.70974 29.8568 5.86933C29.8568 5.43409 29.9687 5.30974 30.4039 5.32217C31.3117 5.35948 32.2319 5.37191 33.1397 5.32217C33.6371 5.2973 33.7117 5.48383 33.6993 5.91907C33.662 7.8714 33.6744 9.83617 33.6744 11.8009ZM1.98942 14.6237C1.98942 12.5968 1.98942 10.5574 1.98942 8.53047C1.98942 6.54083 3.20808 5.2973 5.21015 5.32217C6.51585 5.33461 7.82155 5.17295 9.11481 5.42166C10.7687 5.74497 11.8133 7.0258 11.8257 8.72943C11.8381 10.5325 11.8257 12.3357 11.8257 14.1388C11.8257 16.402 10.4951 17.7823 8.23191 17.8445C7.54797 17.8693 6.86403 17.8569 6.1801 17.8445C5.86922 17.832 5.73243 17.9315 5.74486 18.2673C5.76973 18.7647 5.7573 19.2621 5.74486 19.7595C5.71999 20.8289 4.96144 21.5999 3.90445 21.6123C3.28269 21.6248 2.49927 21.8735 2.10134 21.5129C1.72828 21.1771 2.00186 20.3813 1.98942 19.7844C1.97699 18.0683 1.98942 16.3398 1.98942 14.6237ZM5.74486 11.5771C5.74486 11.975 5.74486 12.3605 5.74486 12.7585C5.74486 14.1636 5.74486 14.1636 7.15004 14.0393C7.75937 13.9895 8.04538 13.6911 8.05782 13.0818C8.07025 12.3854 8.03295 11.6766 8.07025 10.9802C8.14486 8.9657 7.77181 9.16467 6.13036 9.15223C5.83191 9.15223 5.73243 9.23927 5.73243 9.53772C5.7573 10.2092 5.74486 10.8932 5.74486 11.5771Z" fill="#06306F"/>
<path d="M37.1939 14.6485C37.1939 12.9946 37.1815 11.3283 37.2063 9.67443C37.2063 9.28893 37.1193 9.12728 36.6965 9.13971C36.1369 9.16458 35.3908 9.32624 35.0799 9.05266C34.6944 8.69204 34.9929 7.92106 34.9431 7.32417C34.9431 7.28686 34.9431 7.23712 34.9431 7.19982C34.9431 6.61536 34.7566 5.93142 35.0053 5.49619C35.254 5.06096 36.0126 5.33453 36.5473 5.19774C37.6043 4.92417 38.4001 4.31484 39.0468 3.46925C39.4944 2.89723 40.054 2.48687 40.7752 2.35008C41.1607 2.27547 41.397 2.32521 41.3721 2.82262C41.3348 3.51899 41.3721 4.2278 41.3597 4.93661C41.3473 5.23505 41.4592 5.33453 41.7576 5.3221C42.255 5.30966 42.7525 5.33453 43.2499 5.30966C43.5483 5.29723 43.6478 5.40914 43.6354 5.70759C43.6229 6.72728 43.6229 7.73453 43.6354 8.75422C43.6354 9.04023 43.5607 9.18945 43.2499 9.15215C43.1877 9.13971 43.1255 9.15215 43.0633 9.15215C42.5162 9.20189 41.7576 8.90344 41.4716 9.2765C41.198 9.62469 41.3721 10.3459 41.3721 10.9055C41.3721 14.2879 41.3597 17.6578 41.3846 21.0402C41.3846 21.5128 41.2602 21.662 40.7877 21.6247C40.34 21.5874 39.8799 21.6247 39.4198 21.6122C38.0768 21.5625 37.1939 20.6547 37.1939 19.3117C37.1939 17.7573 37.1939 16.2029 37.1939 14.6485Z" fill="#02B9EF"/>
</svg>
